<svg width="48" height="80" viewBox="0 0 48 80" fill="none" xmlns="http://www.w3.org/2000/svg">
<path d="M1.7768 43.1216L37.3778 78.722C38.2012 79.546 39.3004 80 40.4724 80C41.6444 80 42.7436 79.546 43.567 78.722L46.1888 76.1008C47.8948 74.3929 47.8948 71.617 46.1888 69.9116L16.2938 40.0166L46.222 10.0884C47.0454 9.26431 47.5 8.16579 47.5 6.99442C47.5 5.82174 47.0454 4.72321 46.222 3.8985L43.6002 1.27803C42.7761 0.453979 41.6776 -5.0901e-07 40.5056 -6.11471e-07C39.3336 -7.13933e-07 38.2344 0.453979 37.411 1.27803L1.7768 36.9109C0.951439 37.7376 0.498112 38.8413 0.500713 40.0146C0.498111 41.1925 0.951438 42.2956 1.7768 43.1216Z" fill="#E0DEDE"/>
</svg>
