<svg width="48" height="80" viewBox="0 0 48 80" fill="none" xmlns="http://www.w3.org/2000/svg">
<path d="M46.2232 36.8784L10.6222 1.27804C9.79879 0.45398 8.69961 0 7.52759 0C6.35556 0 5.25638 0.45398 4.43298 1.27804L1.81121 3.89916C0.105207 5.60711 0.105207 8.38302 1.81121 10.0884L31.7063 39.9834L1.77804 69.9116C0.95463 70.7357 0.5 71.8342 0.5 73.0056C0.5 74.1783 0.95463 75.2768 1.77804 76.1015L4.39981 78.722C5.22386 79.546 6.32239 80 7.49442 80C8.66644 80 9.76562 79.546 10.589 78.722L46.2232 43.0891C47.0486 42.2624 47.5019 41.1587 47.4993 39.9854C47.5019 38.8075 47.0486 37.7044 46.2232 36.8784Z" fill="#E0DEDE"/>
</svg>
