<svg width="1302" height="699" viewBox="0 0 1302 699" fill="none" xmlns="http://www.w3.org/2000/svg">
<path fill-rule="evenodd" clip-rule="evenodd" d="M724.412 8C724.412 12.4183 720.83 16 716.412 16C711.993 16 708.412 12.4183 708.412 8C708.412 3.58172 711.993 0 716.412 0C720.83 0 724.412 3.58172 724.412 8ZM900 691C900 695.418 896.418 699 892 699C887.582 699 884 695.418 884 691C884 686.582 887.582 683 892 683C896.418 683 900 686.582 900 691ZM2.22787 340.635C1.13674 343.727 0.810593 346.992 1.29358 350.448L0.303207 350.586C-0.201155 346.977 0.138579 343.55 1.28486 340.302L2.22787 340.635ZM4.18826 359.445C4.95301 361.004 5.86204 362.598 6.91898 364.228C7.81689 365.613 8.76053 366.974 9.74926 368.311L8.94514 368.906C7.94443 367.552 6.98912 366.174 6.07991 364.772C5.00356 363.112 4.07442 361.483 3.29047 359.885L4.18826 359.445ZM14.6227 325.996C11.6721 328.063 9.18827 330.224 7.18666 332.482L6.43828 331.819C8.50145 329.491 11.0473 327.28 14.0489 325.177L14.6227 325.996ZM16.2178 376.056C18.5043 378.496 20.9593 380.847 23.5779 383.114L22.9234 383.87C20.2798 381.582 17.7996 379.206 15.4882 376.74L16.2178 376.056ZM32.2652 316.798C29.0865 318.08 26.1344 319.411 23.4166 320.79L22.964 319.898C25.7108 318.504 28.6893 317.162 31.891 315.87L32.2652 316.798ZM31.3864 389.278C34.1309 391.259 37.0158 393.167 40.0369 395.004L39.5174 395.858C36.4751 394.009 33.5682 392.086 30.8011 390.089L31.3864 389.278ZM51.4203 310.368C48.0891 311.309 44.9075 312.281 41.8803 313.285L41.5653 312.336C44.6082 311.326 47.8043 310.35 51.1485 309.405L51.4203 310.368ZM48.6871 399.878C51.6192 401.411 54.6578 402.888 57.8 404.31L57.3876 405.221C54.2292 403.791 51.1736 402.306 48.2239 400.764L48.6871 399.878ZM71.29 305.487C67.7356 306.25 64.3001 307.038 60.9872 307.851L60.7488 306.88C64.072 306.064 67.517 305.274 71.0801 304.51L71.29 305.487ZM67.4408 408.38C70.4335 409.558 73.5066 410.694 76.6581 411.788L76.33 412.733C73.1664 411.634 70.0805 410.494 67.0745 409.31L67.4408 408.38ZM90.5504 301.786C87.191 302.365 83.9129 302.961 80.7183 303.574L80.5298 302.592C83.7309 301.978 87.0152 301.381 90.3805 300.8L90.5504 301.786ZM86.3451 414.949C89.6356 415.957 93.0014 416.925 96.4404 417.855L96.1795 418.821C92.7302 417.888 89.3537 416.917 86.0521 415.905L86.3451 414.949ZM110.578 298.658C107.279 299.125 104.043 299.604 100.87 300.097L100.717 299.109C103.894 298.616 107.135 298.135 110.438 297.668L110.578 298.658ZM105.967 420.288C109.202 421.068 112.495 421.816 115.845 422.535L115.635 423.513C112.277 422.792 108.976 422.042 105.733 421.26L105.967 420.288ZM130.533 296.072C127.093 296.48 123.709 296.899 120.383 297.33L120.255 296.339C123.585 295.907 126.972 295.488 130.415 295.079L130.533 296.072ZM126.063 424.6C129.32 425.22 132.626 425.814 135.98 426.383L135.813 427.369C132.453 426.799 129.14 426.204 125.876 425.583L126.063 424.6ZM150.466 293.89C147.193 294.221 143.962 294.56 140.776 294.907L140.668 293.913C143.857 293.565 147.09 293.226 150.365 292.895L150.466 293.89ZM145.869 427.966C149.209 428.47 152.592 428.951 156.018 429.41L155.886 430.401C152.454 429.942 149.065 429.46 145.719 428.955L145.869 427.966ZM170.608 292.006C167.169 292.304 163.77 292.61 160.412 292.924L160.319 291.928C163.679 291.614 167.08 291.308 170.522 291.01L170.608 292.006ZM166.422 430.718C169.668 431.101 172.95 431.465 176.265 431.811L176.161 432.806C172.841 432.46 169.556 432.095 166.305 431.711L166.422 430.718ZM190.593 290.393C187.307 290.64 184.054 290.893 180.833 291.152L180.753 290.155C183.975 289.896 187.231 289.643 190.518 289.396L190.593 290.393ZM186.296 432.793C189.673 433.102 193.083 433.393 196.525 433.668L196.446 434.664C193 434.39 189.586 434.098 186.205 433.789L186.296 432.793ZM210.687 288.982C207.276 289.206 203.895 289.435 200.546 289.67L200.476 288.673C203.827 288.438 207.209 288.208 210.621 287.985L210.687 288.982ZM206.947 434.439C210.227 434.664 213.535 434.874 216.869 435.069L216.81 436.068C213.473 435.872 210.162 435.661 206.878 435.436L206.947 434.439ZM230.851 287.744C227.545 287.934 224.265 288.129 221.01 288.328L220.949 287.33C224.205 287.13 227.487 286.936 230.794 286.745L230.851 287.744ZM226.933 435.613C230.314 435.78 233.72 435.934 237.151 436.074L237.11 437.073C233.676 436.933 230.267 436.779 226.884 436.612L226.933 435.613ZM250.814 286.664C247.439 286.835 244.087 287.011 240.76 287.191L240.706 286.192C244.034 286.012 247.387 285.837 250.763 285.665L250.814 286.664ZM247.518 436.454C250.863 436.563 254.231 436.66 257.621 436.745L257.596 437.745C254.204 437.66 250.833 437.563 247.485 437.453L247.518 436.454ZM271.214 285.688C267.791 285.842 264.389 286 261.009 286.161L260.961 285.162C264.342 285.001 267.745 284.843 271.169 284.689L271.214 285.688ZM267.67 436.963C271.04 437.025 274.43 437.076 277.84 437.115L277.828 438.115C274.417 438.075 271.024 438.025 267.652 437.963L267.67 436.963ZM291.034 284.844C287.693 284.978 284.371 285.116 281.067 285.256L281.025 284.257C284.329 284.117 287.652 283.979 290.994 283.845L291.034 284.844ZM288.126 437.204C291.549 437.223 294.991 437.232 298.45 437.231L298.45 438.231C294.989 438.232 291.546 438.223 288.121 438.204L288.126 437.204ZM311.297 284.072C307.885 284.195 304.49 284.321 301.112 284.449L301.074 283.45C304.452 283.321 307.848 283.195 311.261 283.072L311.297 284.072ZM308.467 437.201C311.823 437.182 315.194 437.154 318.58 437.118L318.591 438.118C315.203 438.154 311.83 438.182 308.473 438.201L308.467 437.201ZM331.363 283.384C328.05 283.492 324.752 283.602 321.468 283.714L321.434 282.715C324.718 282.602 328.017 282.492 331.33 282.384L331.363 283.384ZM328.785 436.985C332.202 436.932 335.634 436.872 339.079 436.803L339.099 437.803C335.652 437.871 332.219 437.932 328.801 437.985L328.785 436.985ZM351.414 282.761C348.044 282.861 344.688 282.963 341.346 283.067L341.315 282.067C344.657 281.963 348.014 281.862 351.384 281.762L351.414 282.761ZM349.301 436.577C352.643 436.496 355.997 436.408 359.364 436.314L359.392 437.313C356.024 437.408 352.668 437.496 349.325 437.577L349.301 436.577ZM371.783 282.185C368.363 282.277 364.957 282.372 361.564 282.468L361.536 281.468C364.929 281.372 368.336 281.278 371.755 281.185L371.783 282.185ZM369.5 436.01C372.89 435.902 376.292 435.788 379.705 435.667L379.74 436.666C376.326 436.787 372.923 436.901 369.531 437.009L369.5 436.01ZM391.678 281.667C388.34 281.75 385.013 281.835 381.697 281.922L381.671 280.922C384.987 280.836 388.315 280.751 391.653 280.667L391.678 281.667ZM389.977 435.286C393.365 435.155 396.763 435.018 400.171 434.876L400.213 435.875C396.804 436.017 393.404 436.154 390.015 436.286L389.977 435.286ZM411.835 281.179C408.455 281.258 405.085 281.338 401.725 281.419L401.701 280.42C405.061 280.339 408.431 280.259 411.811 280.18L411.835 281.179ZM409.946 457.578C408.067 458.273 406.991 459.154 406.574 460.168C406.164 461.166 406.329 462.453 407.321 464.124L406.461 464.634C405.392 462.834 405.069 461.2 405.649 459.787C406.224 458.391 407.619 457.372 409.6 456.64L409.946 457.578ZM410.257 434.439C413.627 434.288 417.007 434.133 420.396 433.972L420.443 434.971C417.054 435.132 413.673 435.287 410.301 435.438L410.257 434.439ZM414.147 471.26C416.366 473.078 419.072 475.07 422.288 477.246L421.728 478.074C418.494 475.887 415.762 473.876 413.514 472.034L414.147 471.26ZM429.101 456.009C425.334 455.883 421.997 455.896 419.114 456.059L419.057 455.061C421.978 454.896 425.347 454.883 429.134 455.01L429.101 456.009ZM432.048 280.721C428.691 280.795 425.343 280.87 422.004 280.945L421.981 279.946C425.32 279.87 428.669 279.795 432.026 279.721L432.048 280.721ZM430.705 482.645C433.208 484.179 435.913 485.786 438.826 487.468L438.326 488.334C435.406 486.648 432.693 485.037 430.183 483.498L430.705 482.645ZM430.586 433.475C433.991 433.304 437.405 433.129 440.825 432.95L440.878 433.948C437.456 434.128 434.042 434.303 430.636 434.473L430.586 433.475ZM449.339 457.535C445.776 457.159 442.407 456.846 439.243 456.598L439.321 455.601C442.495 455.849 445.873 456.164 449.443 456.541L449.339 457.535ZM452.054 280.29C448.704 280.361 445.361 280.432 442.027 280.504L442.005 279.504C445.34 279.432 448.683 279.361 452.033 279.29L452.054 280.29ZM448.192 492.739C451.002 494.284 453.962 495.884 457.076 497.539L456.607 498.422C453.489 496.765 450.524 495.163 447.71 493.615L448.192 492.739ZM451.028 432.402C454.388 432.218 457.754 432.03 461.127 431.838L461.183 432.837C457.81 433.029 454.443 433.217 451.083 433.401L451.028 432.402ZM469.45 460.012C465.826 459.514 462.334 459.057 458.98 458.643L459.103 457.65C462.462 458.065 465.958 458.523 469.586 459.021L469.45 460.012ZM472.246 279.873C468.866 279.941 465.494 280.011 462.128 280.08L462.107 279.08C464.031 279.041 465.957 279.001 467.886 278.961C469.331 278.932 470.778 278.902 472.226 278.873L472.246 279.873ZM465.254 501.83C468.089 503.3 471.035 504.81 474.093 506.361L473.64 507.252C470.58 505.701 467.632 504.189 464.793 502.718L465.254 501.83ZM471.264 431.252C474.649 431.052 478.04 430.85 481.436 430.643L481.497 431.642C478.1 431.848 474.708 432.051 471.322 432.25L471.264 431.252ZM488.85 462.865C485.547 462.352 482.324 461.864 479.186 461.401L479.332 460.412C482.473 460.875 485.698 461.364 489.004 461.877L488.85 462.865ZM492.382 279.467C489.048 279.534 485.721 279.6 482.4 279.667L482.38 278.667C485.701 278.601 489.028 278.534 492.362 278.468L492.382 279.467ZM483.604 511.136C486.711 512.681 489.92 514.263 493.232 515.882L492.792 516.781C489.479 515.16 486.268 513.577 483.159 512.031L483.604 511.136ZM491.643 430.015C495.042 429.803 498.447 429.588 501.857 429.369L501.921 430.367C498.511 430.586 495.105 430.801 491.705 431.013L491.643 430.015ZM509.226 466.159C505.747 465.577 502.337 465.016 498.999 464.475L499.159 463.488C502.499 464.029 505.91 464.591 509.391 465.173L509.226 466.159ZM501.424 519.864C504.222 521.215 507.088 522.592 510.022 523.993L509.591 524.896C506.656 523.494 503.789 522.116 500.989 520.764L501.424 519.864ZM512.448 279.069L502.398 279.268L502.379 278.268L512.428 278.069L512.448 279.069ZM511.969 428.715C515.344 428.494 518.723 428.27 522.106 428.044L522.173 429.042C518.789 429.268 515.41 429.492 512.034 429.713L511.969 428.715ZM519.03 528.273C522.101 529.724 525.242 531.201 528.452 532.704L528.028 533.61C524.817 532.107 521.675 530.629 518.602 529.177L519.03 528.273ZM528.531 469.466C525.209 468.885 521.938 468.318 518.72 467.767L518.889 466.781C522.108 467.333 525.38 467.9 528.703 468.481L528.531 469.466ZM532.637 278.668L527.605 278.768L522.528 278.869L522.508 277.869C525.873 277.803 529.243 277.736 532.617 277.668L532.637 278.668ZM532.265 427.36C535.655 427.129 539.048 426.896 542.444 426.662L542.513 427.659C539.117 427.894 535.723 428.127 532.333 428.357L532.265 427.36ZM538.293 537.289C541.264 538.667 544.291 540.066 547.373 541.485L546.955 542.393C543.872 540.974 540.844 539.575 537.873 538.196L538.293 537.289ZM548.778 473.065C545.356 472.448 541.978 471.843 538.647 471.25L538.822 470.266C542.154 470.858 545.533 471.464 548.955 472.081L548.778 473.065ZM552.746 278.264C549.402 278.332 546.062 278.399 542.726 278.466L542.706 277.467C546.042 277.4 549.382 277.332 552.725 277.264L552.746 278.264ZM552.64 425.952C556.019 425.715 559.4 425.476 562.783 425.236L562.854 426.234C559.471 426.474 556.089 426.713 552.71 426.949L552.64 425.952ZM555.817 545.359C558.677 546.668 561.583 547.993 564.535 549.335L564.121 550.245C561.169 548.903 558.262 547.577 555.401 546.269L555.817 545.359ZM568.103 476.588C564.811 475.982 561.554 475.386 558.333 474.798L558.512 473.814C561.734 474.402 564.992 474.999 568.284 475.604L568.103 476.588ZM572.844 277.85C569.489 277.92 566.136 277.99 562.786 278.059L562.765 277.059C566.115 276.99 569.468 276.921 572.823 276.85L572.844 277.85ZM572.927 424.512C576.31 424.27 579.695 424.026 583.08 423.78L583.153 424.778C579.767 425.023 576.382 425.267 572.998 425.51L572.927 424.512ZM573.529 553.412C576.573 554.788 579.663 556.182 582.801 557.592L582.391 558.504C579.253 557.093 576.162 555.7 573.117 554.323L573.529 553.412ZM588.248 480.32C584.827 479.683 581.436 479.052 578.078 478.43L578.26 477.446C581.618 478.069 585.01 478.699 588.432 479.337L588.248 480.32ZM593.008 277.42C589.643 277.493 586.28 277.566 582.919 277.637L582.898 276.638C585.182 276.589 587.467 276.54 589.753 276.49C590.831 276.467 591.909 276.444 592.987 276.42L593.008 277.42ZM592.353 561.876C595.584 563.321 598.863 564.784 602.189 566.264L601.782 567.178C598.456 565.697 595.177 564.234 591.945 562.789L592.353 561.876ZM593.241 423.042C596.629 422.795 600.018 422.547 603.407 422.298L603.48 423.295C600.091 423.544 596.702 423.792 593.314 424.039L593.241 423.042ZM607.67 483.956C604.413 483.344 601.18 482.738 597.971 482.137L598.155 481.154C601.364 481.755 604.597 482.362 607.855 482.973L607.67 483.956ZM613.122 276.971C609.772 277.048 606.423 277.123 603.075 277.198L603.053 276.198C606.4 276.123 609.749 276.048 613.099 275.971L613.122 276.971ZM611.503 570.401C614.31 571.644 617.149 572.9 620.021 574.168L619.617 575.083C616.745 573.815 613.905 572.559 611.098 571.315L611.503 570.401ZM613.57 421.55L617.982 421.224C619.898 421.083 621.815 420.941 623.731 420.799L623.805 421.797C620.418 422.047 617.031 422.297 613.644 422.547L613.57 421.55ZM627.492 487.687C624.144 487.056 620.817 486.429 617.513 485.807L617.698 484.825C621.002 485.447 624.329 486.074 627.677 486.705L627.492 487.687ZM633.237 276.497C629.883 276.578 626.529 276.659 623.177 276.737L623.153 275.738C626.505 275.659 629.859 275.579 633.212 275.497L633.237 276.497ZM628.734 578.008C631.671 579.3 634.641 580.605 637.644 581.921L637.242 582.837C634.239 581.52 631.269 580.216 628.331 578.924L628.734 578.008ZM633.888 420.047L644.041 419.294L644.115 420.291L633.962 421.044L633.888 420.047ZM647.291 491.42C644.126 490.824 640.977 490.23 637.846 489.64L637.6 489.593L637.786 488.611L643.544 489.696L647.476 490.438L647.291 491.42ZM653.364 275.994C650.009 276.08 646.654 276.165 643.299 276.249L643.274 275.25C646.629 275.166 649.983 275.081 653.338 274.994L653.364 275.994ZM646.752 585.908C649.821 587.249 652.923 588.603 656.059 589.969L655.66 590.885C652.524 589.519 649.421 588.166 646.352 586.824L646.752 585.908ZM654.187 418.542C657.571 418.291 660.954 418.041 664.335 417.791L664.408 418.789C661.028 419.038 657.645 419.289 654.26 419.539L654.187 418.542ZM666.895 495.111C663.596 494.491 660.312 493.873 657.045 493.258L657.23 492.275C660.497 492.89 663.781 493.508 667.079 494.128L666.895 495.111ZM673.502 275.455C670.146 275.548 666.79 275.639 663.433 275.729L663.406 274.729C666.763 274.64 670.119 274.548 673.474 274.455L673.502 275.455ZM665.567 594.104C668.77 595.495 672.007 596.898 675.277 598.314L674.88 599.232C671.609 597.816 668.372 596.412 665.169 595.021L665.567 594.104ZM674.522 417.04C676.049 416.927 677.575 416.815 679.1 416.703C680.966 416.566 682.831 416.43 684.695 416.293L684.768 417.29C681.38 417.538 677.989 417.787 674.596 418.037L674.522 417.04ZM686.859 498.852C683.505 498.226 680.163 497.6 676.835 496.976L677.019 495.994C680.347 496.617 683.689 497.243 687.043 497.869L686.859 498.852ZM693.62 274.877C690.27 274.977 686.918 275.075 683.565 275.171L683.536 274.172C686.889 274.075 690.24 273.977 693.59 273.878L693.62 274.877ZM685.19 602.601C686.855 603.32 688.529 604.042 690.211 604.767C691.48 605.314 692.754 605.863 694.033 606.414L693.637 607.333C690.663 606.052 687.715 604.78 684.794 603.519L685.19 602.601ZM694.85 415.552C698.232 415.306 701.61 415.062 704.985 414.818L705.057 415.816C701.682 416.059 698.304 416.304 694.922 416.549L694.85 415.552ZM706.445 502.496C705.303 502.285 704.163 502.073 703.024 501.862C701.46 501.572 699.899 501.282 698.34 500.992L696.658 500.679L696.841 499.696C700.092 500.301 703.354 500.907 706.627 501.513L706.445 502.496ZM702.685 610.137C705.593 611.387 708.526 612.646 711.483 613.914L711.089 614.833C708.132 613.565 705.199 612.305 702.29 611.055L702.685 610.137ZM713.699 274.256C710.357 274.363 707.012 274.469 703.666 274.572L703.635 273.573C706.981 273.469 710.325 273.364 713.667 273.256L713.699 274.256ZM715.098 414.093C718.506 413.85 721.91 413.608 725.309 413.368L725.379 414.366C721.98 414.606 718.577 414.847 715.169 415.09L715.098 414.093ZM726.196 506.136C722.886 505.529 719.585 504.922 716.292 504.316L716.474 503.332C719.765 503.939 723.067 504.546 726.376 505.152L726.196 506.136ZM720.429 617.746C723.435 619.032 726.466 620.328 729.522 621.633L729.129 622.553C726.073 621.248 723.042 619.952 720.035 618.665L720.429 617.746ZM733.878 273.58C730.519 273.697 727.157 273.812 723.793 273.925L723.76 272.925C727.124 272.813 730.485 272.698 733.843 272.581L733.878 273.58ZM729.852 8.24477L729.843 7.74486L729.844 7.74483L729.848 7.74477L729.861 7.7445L729.917 7.74347L730.137 7.73949C730.331 7.73603 730.622 7.731 731.007 7.72475C731.775 7.71224 732.917 7.69482 734.412 7.67515L734.425 8.67507C732.931 8.69472 731.79 8.71212 731.023 8.72462C730.639 8.73086 730.349 8.73588 730.154 8.73933L729.935 8.7433L729.88 8.74433L729.867 8.74459L729.863 8.74465L729.862 8.74467L729.852 8.24477ZM735.506 412.654C738.9 412.418 742.289 412.184 745.672 411.953L745.741 412.95C742.358 413.182 738.969 413.416 735.575 413.652L735.506 412.654ZM746.053 509.75C742.745 509.152 739.444 508.553 736.15 507.953L736.329 506.97C739.622 507.569 742.924 508.168 746.231 508.766L746.053 509.75ZM738.764 625.576C741.87 626.9 745 628.232 748.155 629.575L747.764 630.495C744.608 629.153 741.478 627.82 738.372 626.496L738.764 625.576ZM753.988 272.851C750.643 272.977 747.295 273.101 743.943 273.223L743.907 272.223C747.258 272.102 750.606 271.978 753.95 271.852L753.988 272.851ZM744.628 7.57129C747.571 7.54894 750.92 7.52937 754.646 7.51643L754.65 8.51642C750.925 8.52936 747.577 8.54893 744.636 8.57126L744.628 7.57129ZM755.806 411.265C759.177 411.038 762.543 410.814 765.903 410.592L765.969 411.59C762.61 411.812 759.244 412.036 755.873 412.263L755.806 411.265ZM765.74 513.28C762.449 512.695 759.162 512.108 755.881 511.519L756.057 510.535C759.338 511.123 762.625 511.71 765.916 512.296L765.74 513.28ZM757.697 633.63C760.903 634.991 764.134 636.361 767.39 637.741L766.999 638.662C765.368 637.971 763.743 637.282 762.125 636.595C760.512 635.911 758.906 635.229 757.306 634.55L757.697 633.63ZM774.027 272.062C770.692 272.199 767.353 272.333 764.009 272.464L763.97 271.465C767.313 271.334 770.652 271.2 773.986 271.063L774.027 272.062ZM764.793 7.50009C768.034 7.50073 771.471 7.50687 775.092 7.52012L775.089 8.52011C771.469 8.50687 768.032 8.50073 764.793 8.50009L764.793 7.50009ZM785.538 516.768C782.231 516.191 778.928 515.612 775.628 515.031L775.801 514.046C779.101 514.627 782.404 515.206 785.709 515.783L785.538 516.768ZM776.103 409.927C779.52 409.707 782.93 409.49 786.332 409.276L786.395 410.274C782.993 410.488 779.584 410.705 776.168 410.925L776.103 409.927ZM777.234 641.91C780.302 643.207 783.392 644.514 786.504 645.828L786.115 646.749C783.003 645.435 779.912 644.129 776.844 642.831L777.234 641.91ZM794.242 271.197C790.884 271.347 787.52 271.494 784.15 271.638L784.107 270.639C787.476 270.495 790.84 270.348 794.198 270.198L794.242 271.197ZM784.922 7.57169C788.255 7.59439 791.712 7.62321 795.285 7.65912L795.275 8.65907C791.703 8.62317 788.247 8.59436 784.915 8.57166L784.922 7.57169ZM795.18 649.49C798.091 650.718 801.021 651.953 803.97 653.195L803.582 654.116C800.633 652.874 797.703 651.639 794.792 650.411L795.18 649.49ZM805.355 520.189C802.057 519.626 798.76 519.06 795.465 518.491L795.635 517.506C798.929 518.075 802.226 518.641 805.524 519.204L805.355 520.189ZM796.516 408.645C799.902 408.438 803.281 408.235 806.651 408.035L806.71 409.033C803.341 409.233 799.963 409.436 796.577 409.643L796.516 408.645ZM814.325 270.261C810.99 270.423 807.649 270.582 804.302 270.738L804.255 269.739C807.602 269.583 810.942 269.424 814.276 269.262L814.325 270.261ZM805.103 7.77256C808.464 7.81646 811.913 7.86666 815.444 7.92387L815.428 8.92373C811.898 8.86655 808.45 8.81636 805.09 8.77248L805.103 7.77256ZM812.873 656.942C815.859 658.198 818.865 659.461 821.89 660.732L821.502 661.654C820.031 661.036 818.565 660.419 817.102 659.805C815.558 659.156 814.019 658.509 812.485 657.864L812.873 656.942ZM825.152 523.526C821.853 522.977 818.553 522.425 815.253 521.868L815.419 520.882C818.718 521.438 822.018 521.991 825.316 522.54L825.152 523.526ZM816.735 407.448C820.141 407.253 823.537 407.063 826.924 406.877L826.979 407.875C823.593 408.061 820.197 408.252 816.792 408.447L816.735 407.448ZM834.363 269.245C831.019 269.422 827.668 269.595 824.31 269.766L824.26 268.767C827.617 268.597 830.967 268.423 834.31 268.246L834.363 269.245ZM825.287 8.09803C828.622 8.16204 832.022 8.23233 835.48 8.30942L835.458 9.30917C832 9.2321 828.602 9.16184 825.268 9.09785L825.287 8.09803ZM831.021 664.565C834.084 665.849 837.166 667.141 840.267 668.441L839.88 669.363C836.779 668.064 833.697 666.772 830.634 665.487L831.021 664.565ZM844.937 526.771C841.643 526.239 838.346 525.702 835.049 525.161L835.211 524.175C838.508 524.715 841.803 525.252 845.096 525.784L844.937 526.771ZM837.187 406.325C840.598 406.146 843.998 405.971 847.388 405.802L847.438 406.801C844.049 406.97 840.65 407.145 837.24 407.324L837.187 406.325ZM854.582 268.127C851.228 268.321 847.866 268.511 844.496 268.697L844.441 267.699C847.81 267.512 851.172 267.323 854.525 267.129L854.582 268.127ZM845.501 8.54815C848.805 8.63194 852.157 8.72199 855.553 8.8187L855.525 9.81829C852.13 9.72161 848.779 9.63159 845.476 9.54783L845.501 8.54815ZM852.297 673.476L853.534 673.994L856.59 675.271L859.105 676.323L858.72 677.246C855.541 675.917 852.382 674.596 849.242 673.282L849.628 672.36L852.297 673.476ZM864.833 529.933C861.515 529.415 858.193 528.891 854.868 528.363L855.025 527.375C858.349 527.904 861.671 528.427 864.988 528.945L864.833 529.933ZM857.522 405.309C860.889 405.15 864.244 404.996 867.588 404.848L867.632 405.847C864.29 405.995 860.935 406.149 857.569 406.308L857.522 405.309ZM874.603 266.921C871.284 267.129 867.956 267.334 864.619 267.535L864.558 266.537C867.895 266.336 871.222 266.131 874.54 265.922L874.603 266.921ZM865.761 9.12569C869.038 9.22951 872.352 9.3396 875.699 9.45629L875.664 10.4557C872.318 10.339 869.005 10.229 865.729 10.1252L865.761 9.12569ZM868.699 680.33C871.916 681.673 875.153 683.023 878.409 684.38L878.024 685.303C876.443 684.644 874.867 683.987 873.296 683.331C871.63 682.637 869.969 681.944 868.314 681.253L868.699 680.33ZM884.687 532.975C881.388 532.48 878.084 531.978 874.775 531.471L874.926 530.483C878.235 530.99 881.538 531.491 884.836 531.986L884.687 532.975ZM877.796 404.412C881.24 404.27 884.67 404.135 888.087 404.006L888.125 405.005C884.709 405.134 881.28 405.269 877.837 405.411L877.796 404.412ZM894.69 265.6C891.315 265.831 887.929 266.059 884.533 266.282L884.467 265.284C887.862 265.061 891.247 264.834 894.622 264.602L894.69 265.6ZM885.842 9.82652C889.17 9.95355 892.529 10.0872 895.914 10.2277L895.873 11.2269C892.488 11.0864 889.131 10.9528 885.803 10.8258L885.842 9.82652ZM904.429 535.874C901.148 535.404 897.86 534.926 894.565 534.442L894.71 533.453C898.004 533.937 901.292 534.414 904.571 534.884L904.429 535.874ZM898.294 403.639C901.682 403.523 905.055 403.415 908.414 403.313L908.444 404.313C905.087 404.414 901.715 404.523 898.328 404.638L898.294 403.639ZM914.866 264.151C911.525 264.401 908.174 264.647 904.811 264.889L904.74 263.891C908.101 263.65 911.452 263.404 914.791 263.154L914.866 264.151ZM905.931 10.6606C909.294 10.8117 912.681 10.9697 916.09 11.135L916.042 12.1338C912.634 11.9686 909.248 11.8106 905.886 11.6596L905.931 10.6606ZM924.502 538.679C921.175 538.227 917.838 537.767 914.492 537.3L914.631 536.309C917.975 536.777 921.311 537.237 924.637 537.689L924.502 538.679ZM918.443 403.03C921.892 402.94 925.325 402.858 928.74 402.784L928.762 403.784C925.348 403.857 921.917 403.94 918.469 404.03L918.443 403.03ZM934.765 262.59C931.473 262.86 928.168 263.125 924.851 263.385L924.773 262.388C928.089 262.128 931.392 261.863 934.683 261.593L934.765 262.59ZM926.106 11.6385C929.437 11.812 932.786 11.9925 936.151 12.1803L936.096 13.1788C932.732 12.9911 929.384 12.8106 926.054 12.6372L926.106 11.6385ZM944.341 541.293C941.056 540.875 937.76 540.447 934.454 540.011L934.584 539.02C937.89 539.456 941.184 539.883 944.467 540.301L944.341 541.293ZM939.037 402.585C942.451 402.528 945.847 402.479 949.223 402.439L949.235 403.439C945.86 403.479 942.466 403.528 939.054 403.585L939.037 402.585ZM954.974 260.857C951.603 261.159 948.218 261.456 944.818 261.747L944.733 260.751C948.131 260.46 951.515 260.163 954.884 259.861L954.974 260.857ZM946.293 12.7659C949.615 12.9641 952.951 13.1696 956.298 13.3826L956.234 14.3806C952.889 14.1677 949.555 13.9623 946.234 13.7641L946.293 12.7659ZM964.262 543.74C960.908 543.344 957.54 542.938 954.158 542.522L954.28 541.53C957.66 541.945 961.027 542.351 964.379 542.747L964.262 543.74ZM959.295 402.348C962.67 402.327 966.026 402.315 969.361 402.314L969.361 403.314C966.028 403.315 962.675 403.327 959.301 403.348L959.295 402.348ZM975.021 258.974C971.71 259.299 968.384 259.619 965.042 259.933L964.949 258.937C968.289 258.623 971.614 258.304 974.923 257.979L975.021 258.974ZM966.349 14.0429C969.71 14.2705 973.08 14.5059 976.457 14.7493L976.385 15.7467C973.009 15.5034 969.641 15.2682 966.282 15.0406L966.349 14.0429ZM984.357 546.003C981.04 545.648 977.707 545.281 974.357 544.904L974.469 543.91C977.817 544.287 981.149 544.654 984.463 545.009L984.357 546.003ZM979.756 402.342C983.197 402.362 986.616 402.394 990.009 402.438L989.996 403.438C986.605 403.394 983.189 403.362 979.75 403.342L979.756 402.342ZM994.879 256.931C991.572 257.287 988.248 257.637 984.907 257.98L984.805 256.986C988.144 256.642 991.466 256.293 994.772 255.937L994.879 256.931ZM986.473 15.4929C989.817 15.7487 993.166 16.0123 996.519 16.2842L996.438 17.281C993.087 17.0092 989.739 16.7456 986.397 16.49L986.473 15.4929ZM1004.04 547.994C1000.8 547.686 997.536 547.366 994.254 547.034L994.355 546.039C997.635 546.371 1000.9 546.691 1004.14 546.999L1004.04 547.994ZM1000.12 402.604C1003.46 402.672 1006.78 402.751 1010.07 402.843L1010.05 403.843C1006.76 403.751 1003.44 403.671 1000.1 403.604L1000.12 402.604ZM1015.12 254.645C1011.78 255.04 1008.43 255.428 1005.05 255.809L1004.94 254.815C1008.31 254.435 1011.67 254.047 1015 253.652L1015.12 254.645ZM1006.59 17.1248C1009.93 17.4121 1013.27 17.7079 1016.62 18.0122L1016.53 19.0081C1013.19 18.7039 1009.84 18.4083 1006.5 18.1211L1006.59 17.1248ZM1024.38 549.781C1021.01 549.51 1017.62 549.224 1014.21 548.924L1014.3 547.928C1017.71 548.228 1021.1 548.514 1024.46 548.784L1024.38 549.781ZM1020.47 403.179C1023.93 403.306 1027.36 403.448 1030.77 403.605L1030.72 404.604C1027.32 404.447 1023.89 404.305 1020.43 404.178L1020.47 403.179ZM1034.89 252.189C1031.64 252.613 1028.36 253.03 1025.06 253.439L1024.94 252.446C1028.23 252.037 1031.51 251.621 1034.76 251.197L1034.89 252.189ZM1026.65 18.9513C1030 19.2732 1033.34 19.6039 1036.67 19.9437L1036.57 20.9385C1033.24 20.5989 1029.9 20.2684 1026.56 19.9467L1026.65 18.9513ZM1044.28 551.222C1041.01 551.013 1037.72 550.789 1034.4 550.548L1034.48 549.551C1037.79 549.791 1041.08 550.016 1044.34 550.224L1044.28 551.222ZM1040.88 404.123C1044.21 404.312 1047.52 404.516 1050.79 404.736L1050.72 405.734C1047.46 405.514 1044.15 405.31 1040.82 405.122L1040.88 404.123ZM1055.02 249.433C1051.66 249.917 1048.27 250.392 1044.86 250.858L1044.72 249.867C1048.13 249.401 1051.52 248.926 1054.87 248.443L1055.02 249.433ZM1046.72 20.996C1050.07 21.3562 1053.41 21.7257 1056.74 22.105L1056.63 23.0985C1053.3 22.7196 1049.96 22.3502 1046.62 21.9903L1046.72 20.996ZM1064.41 552.317C1060.98 552.165 1057.52 551.993 1054.02 551.802L1054.07 550.803C1057.57 550.995 1061.03 551.167 1064.45 551.318L1064.41 552.317ZM1061.17 405.498C1064.64 405.775 1068.06 406.071 1071.45 406.388L1071.36 407.384C1067.97 407.067 1064.55 406.771 1061.09 406.495L1061.17 405.498ZM1074.88 246.424C1071.62 246.944 1068.34 247.454 1065.03 247.955L1064.88 246.967C1068.19 246.466 1071.47 245.956 1074.73 245.437L1074.88 246.424ZM1066.72 23.2727C1070.08 23.6774 1073.43 24.0922 1076.77 24.5175L1076.65 25.5095C1073.31 25.0845 1069.96 24.6699 1066.6 24.2655L1066.72 23.2727ZM1084.54 552.975C1081.26 552.908 1077.94 552.82 1074.58 552.71L1074.62 551.71C1077.97 551.82 1081.28 551.909 1084.56 551.976L1084.54 552.975ZM1081.48 407.399C1084.81 407.76 1088.1 408.142 1091.34 408.546L1091.22 409.538C1087.98 409.135 1084.7 408.754 1081.37 408.393L1081.48 407.399ZM1094.7 243.096C1091.36 243.687 1087.99 244.268 1084.58 244.839L1084.42 243.852C1087.82 243.283 1091.19 242.702 1094.52 242.111L1094.7 243.096ZM1086.76 25.825C1090.09 26.2728 1093.4 26.7313 1096.7 27.2009L1096.55 28.1909C1093.26 27.7217 1089.95 27.2635 1086.63 26.8161L1086.76 25.825ZM1104.52 553.103C1101.15 553.132 1097.73 553.134 1094.26 553.11L1094.27 552.11C1097.73 552.134 1101.14 552.132 1104.51 552.103L1104.52 553.103ZM1101.78 409.944C1105.2 410.436 1108.57 410.956 1111.88 411.502L1111.72 412.489C1108.41 411.944 1105.05 411.425 1101.63 410.934L1101.78 409.944ZM1114.61 239.368C1111.36 240.012 1108.07 240.644 1104.75 241.266L1104.57 240.283C1107.88 239.662 1111.17 239.03 1114.41 238.387L1114.61 239.368ZM1106.75 28.6745C1110.08 29.1774 1113.39 29.6921 1116.69 30.2188L1116.53 31.2063C1113.24 30.68 1109.93 30.1658 1106.6 29.6633L1106.75 28.6745ZM1124.76 552.562C1121.5 552.713 1118.18 552.833 1114.8 552.923L1114.78 551.924C1118.15 551.834 1121.46 551.714 1124.71 551.563L1124.76 552.562ZM1121.65 413.226C1125.11 413.876 1128.5 414.56 1131.82 415.278L1131.61 416.255C1128.3 415.54 1124.92 414.858 1121.47 414.209L1121.65 413.226ZM1134.13 235.273C1130.88 235.995 1127.59 236.705 1124.27 237.402L1124.06 236.423C1127.38 235.727 1130.67 235.018 1133.91 234.297L1134.13 235.273ZM1126.59 31.8505C1129.96 32.421 1133.29 33.0047 1136.61 33.6019L1136.43 34.586C1133.12 33.9894 1129.78 33.4063 1126.42 32.8364L1126.59 31.8505ZM1144.77 551.165C1141.38 551.49 1137.91 551.772 1134.37 552.014L1134.3 551.016C1137.84 550.775 1141.29 550.493 1144.67 550.169L1144.77 551.165ZM1141.88 417.612C1145.16 418.427 1148.36 419.279 1151.48 420.17L1151.21 421.132C1148.1 420.244 1144.9 419.395 1141.64 418.582L1141.88 417.612ZM1153.94 230.584C1150.73 231.394 1147.47 232.19 1144.17 232.972L1143.94 231.998C1147.23 231.218 1150.49 230.423 1153.7 229.614L1153.94 230.584ZM1146.46 35.4342C1149.79 36.0731 1153.1 36.7264 1156.37 37.3945L1156.17 38.3743C1152.9 37.707 1149.6 37.0545 1146.27 36.4164L1146.46 35.4342ZM1164.58 548.62C1161.45 549.137 1158.23 549.607 1154.93 550.03L1154.8 549.038C1158.1 548.616 1161.3 548.148 1164.41 547.633L1164.58 548.62ZM1161.37 423.207C1164.71 424.311 1167.95 425.465 1171.08 426.673L1170.72 427.606C1167.6 426.405 1164.38 425.255 1161.06 424.156L1161.37 423.207ZM1173.21 225.393C1170.01 226.314 1166.76 227.219 1163.46 228.107L1163.2 227.141C1166.49 226.255 1169.74 225.352 1172.94 224.432L1173.21 225.393ZM1166.29 39.4906C1169.56 40.205 1172.8 40.9351 1175.99 41.6814L1175.76 42.6552C1172.57 41.91 1169.34 41.181 1166.08 40.4676L1166.29 39.4906ZM1184.56 544.304C1181.33 545.194 1177.97 546.011 1174.47 546.757L1174.26 545.779C1177.74 545.037 1181.09 544.224 1184.29 543.34L1184.56 544.304ZM1180.15 430.454C1183.45 431.942 1186.61 433.5 1189.63 435.13L1189.15 436.01C1186.16 434.392 1183.02 432.845 1179.74 431.366L1180.15 430.454ZM1192.6 219.38C1189.49 220.421 1186.31 221.442 1183.08 222.444L1182.78 221.489C1186.01 220.489 1189.18 219.47 1192.28 218.432L1192.6 219.38ZM1185.93 44.0866C1189.22 44.9128 1192.46 45.7575 1195.66 46.6211L1195.4 47.5864C1192.21 46.7245 1188.97 45.8813 1185.68 45.0565L1185.93 44.0866ZM1203.33 537.513C1200.36 538.916 1197.18 540.214 1193.8 541.41L1193.47 540.467C1196.81 539.281 1199.96 537.996 1202.91 536.609L1203.33 537.513ZM1198.3 440.272C1201.24 442.192 1204.01 444.199 1206.6 446.297L1205.97 447.074C1203.41 444.999 1200.67 443.012 1197.75 441.109L1198.3 440.272ZM1211.55 212.504C1208.37 213.761 1205.1 214.992 1201.76 216.199L1201.42 215.258C1204.75 214.055 1208.01 212.827 1211.18 211.574L1211.55 212.504ZM1205.33 49.3405C1208.64 50.3086 1211.89 51.2989 1215.07 52.3119L1214.77 53.2648C1211.59 52.2543 1208.35 51.2663 1205.05 50.3003L1205.33 49.3405ZM1219.99 526.58C1217.67 528.75 1215.06 530.767 1212.17 532.638L1211.63 531.799C1214.48 529.956 1217.04 527.975 1219.3 525.851L1219.99 526.58ZM1214.14 453.199C1216.54 455.683 1218.71 458.277 1220.66 460.985L1219.85 461.569C1217.93 458.901 1215.78 456.344 1213.42 453.893L1214.14 453.199ZM1229.8 204.609C1226.92 205.978 1223.96 207.32 1220.92 208.636L1220.52 207.718C1223.55 206.407 1226.5 205.07 1229.37 203.706L1229.8 204.609ZM1224.45 55.4308C1227.77 56.5827 1231 57.7621 1234.14 58.9697L1233.78 59.9033C1230.65 58.6997 1227.43 57.524 1224.12 56.3754L1224.45 55.4308ZM1225.97 469.764C1227.47 472.774 1228.73 475.905 1229.73 479.163L1228.77 479.457C1227.79 476.252 1226.55 473.171 1225.07 470.21L1225.97 469.764ZM1230.78 509.879C1229.77 513.041 1228.36 516.005 1226.57 518.779L1225.73 518.235C1227.48 515.535 1228.85 512.652 1229.82 509.576L1230.78 509.879ZM1231.96 489.179C1232.2 490.911 1232.38 492.673 1232.5 494.467C1232.62 496.327 1232.64 498.138 1232.55 499.898L1231.55 499.848C1231.63 498.127 1231.62 496.356 1231.5 494.533C1231.39 492.763 1231.21 491.025 1230.97 489.319L1231.96 489.179ZM1247.87 194.978C1245.04 196.679 1242.09 198.343 1239.03 199.971L1238.56 199.088C1241.6 197.467 1244.54 195.812 1247.36 194.12L1247.87 194.978ZM1243.31 62.6779C1246.55 64.0609 1249.69 65.4784 1252.7 66.9315L1252.27 67.8324C1249.27 66.3865 1246.15 64.9752 1242.92 63.5978L1243.31 62.6779ZM1264.46 183.549C1261.81 185.671 1259 187.742 1256.03 189.763L1255.47 188.937C1258.42 186.929 1261.21 184.873 1263.84 182.768L1264.46 183.549ZM1261.47 71.4415C1264.6 73.1587 1267.56 74.9223 1270.36 76.7335L1269.82 77.5733C1267.04 75.776 1264.1 74.0245 1260.99 72.3177L1261.47 71.4415ZM1275.38 173.59C1274.29 174.736 1273.16 175.869 1271.99 176.988L1271.3 176.265C1272.46 175.156 1273.58 174.035 1274.66 172.9C1275.93 171.566 1277.15 170.242 1278.32 168.929L1279.06 169.595C1277.89 170.916 1276.66 172.247 1275.38 173.59ZM1278.52 82.507C1281.29 84.6738 1283.85 86.9044 1286.16 89.2007L1285.46 89.9107C1283.17 87.6451 1280.65 85.4405 1277.9 83.2954L1278.52 82.507ZM1291.31 153.588C1289.61 156.276 1287.69 159.011 1285.55 161.794L1284.76 161.184C1286.88 158.423 1288.78 155.713 1290.46 153.054L1291.31 153.588ZM1292.83 96.9023C1294.87 99.703 1296.58 102.594 1297.93 105.577L1297.02 105.99C1295.7 103.074 1294.03 100.242 1292.02 97.4916L1292.83 96.9023ZM1299.81 135.229C1298.93 138.339 1297.72 141.521 1296.18 144.776L1295.28 144.349C1296.8 141.139 1297.98 138.009 1298.84 134.956L1299.81 135.229ZM1300.98 115.254C1301.58 118.533 1301.78 121.91 1301.55 125.386L1300.55 125.319C1300.78 121.924 1300.58 118.63 1300 115.433L1300.98 115.254Z" fill="black"/>
</svg>
