<svg width="1327" height="1461" viewBox="0 0 1327 1461" fill="none" xmlns="http://www.w3.org/2000/svg">
<path fill-rule="evenodd" clip-rule="evenodd" d="M645.946 8.93548C645.482 12.913 642.102 16.0001 638 16.0001C633.581 16.0001 630 12.4184 630 8.00012C630 3.58184 633.581 0.00012207 638 0.00012207C642.396 0.00012207 645.964 3.54608 645.999 7.93384C646.703 7.91648 647.55 7.89636 648.538 7.87427L648.56 8.87401C647.536 8.89692 646.663 8.9177 645.946 8.93548ZM898 1453C898 1457.42 894.418 1461 890 1461C885.582 1461 882 1457.42 882 1453C882 1448.58 885.582 1445 890 1445C894.418 1445 898 1448.58 898 1453ZM2.11885 1026.51C1.62057 1029.81 1.29209 1033.12 1.13759 1036.44L0.138672 1036.39C0.294797 1033.04 0.626721 1029.69 1.13007 1026.36L2.11885 1026.51ZM1.20029 1046.44C1.39801 1049.78 1.77398 1053.14 2.33253 1056.51L1.34599 1056.67C0.781746 1053.27 0.401838 1049.88 0.202035 1046.5L1.20029 1046.44ZM6.89799 1007.46C5.79743 1010.6 4.84748 1013.75 4.05182 1016.91L3.08208 1016.67C3.88535 1013.48 4.84408 1010.3 5.95429 1007.13L6.89799 1007.46ZM4.4267 1066.16C5.24076 1069.2 6.20431 1072.25 7.32053 1075.3L6.38122 1075.65C5.25515 1072.56 4.28268 1069.49 3.46082 1066.42L4.4267 1066.16ZM15.2792 988.749C13.591 991.847 12.0459 994.956 10.6478 998.075L9.73531 997.666C11.1444 994.522 12.701 991.39 14.4011 988.27L15.2792 988.749ZM11.1305 1084.5C12.5553 1087.58 14.136 1090.67 15.8757 1093.76L15.0039 1094.25C13.2518 1091.13 11.6592 1088.02 10.2231 1084.92L11.1305 1084.5ZM25.6129 972.331C23.6915 975.023 21.8757 977.723 20.1681 980.431L19.3222 979.897C21.0405 977.173 22.867 974.457 24.799 971.75L25.6129 972.331ZM21.2938 1102.66C22.9468 1105.18 24.7055 1107.7 26.5717 1110.24L25.7668 1110.83C23.8902 1108.28 22.121 1105.74 20.4578 1103.21L21.2938 1102.66ZM31.1834 328.598C29.5307 331.682 28.6274 334.814 28.4998 338L27.5006 337.96C27.6349 334.606 28.5864 331.327 30.3019 328.125L31.1834 328.598ZM30.3201 347.381C30.9947 348.977 31.8591 350.593 32.9192 352.228C33.8212 353.619 34.7627 354.985 35.7431 356.327L34.9357 356.917C33.9444 355.56 32.9924 354.179 32.0801 352.772C30.9915 351.093 30.0986 349.426 29.399 347.77L30.3201 347.381ZM38.3872 956.274C36.0539 958.934 33.821 961.602 31.6911 964.278L30.9086 963.655C33.049 960.966 35.2921 958.286 37.6355 955.614L38.3872 956.274ZM32.4943 1117.85C34.577 1120.4 36.7688 1122.95 39.0714 1125.51L38.3281 1126.18C36.0154 1123.61 33.8134 1121.04 31.7203 1118.48L32.4943 1117.85ZM44.9745 313.994C41.9002 316.245 39.2382 318.526 37.0034 320.836L36.2847 320.141C38.5659 317.783 41.2726 315.465 44.3838 313.187L44.9745 313.994ZM42.0884 364.083C44.3248 366.537 46.7086 368.898 49.2356 371.168L48.5672 371.912C46.0165 369.62 43.609 367.236 41.3493 364.756L42.0884 364.083ZM52.0066 941.929C49.69 944.197 47.4444 946.471 45.2717 948.751L44.5478 948.061C46.7288 945.772 48.9825 943.49 51.3071 941.215L52.0066 941.929ZM46.3131 1133.2C48.8326 1135.77 51.4639 1138.34 54.2087 1140.92L53.5239 1141.65C50.7697 1139.06 48.1288 1136.48 45.5995 1133.9L46.3131 1133.2ZM62.0645 303.8C58.8381 305.418 55.8275 307.053 53.0399 308.706L52.5298 307.846C55.34 306.179 58.3715 304.533 61.6163 302.906L62.0645 303.8ZM56.9062 377.46C59.5926 379.475 62.4074 381.409 65.3469 383.265L64.8131 384.11C61.852 382.241 59.015 380.292 56.3061 378.26L56.9062 377.46ZM66.7463 928.394C64.1519 930.638 61.6253 932.888 59.1682 935.144L58.4919 934.407C60.9566 932.144 63.4906 929.888 66.0921 927.638L66.7463 928.394ZM60.9136 1147.04C63.2197 1149.08 65.597 1151.12 68.0465 1153.17L67.4046 1153.94C64.9482 1151.88 62.5639 1149.83 60.2507 1147.78L60.9136 1147.04ZM80.4288 295.67C77.3047 296.905 74.3079 298.152 71.442 299.41L71.0402 298.494C73.9182 297.231 76.9265 295.98 80.061 294.74L80.4288 295.67ZM73.8408 388.224C76.7503 389.796 79.7621 391.303 82.8732 392.748L82.4521 393.655C79.3236 392.202 76.2937 390.686 73.3654 389.104L73.8408 388.224ZM82.8642 915.196C80.0919 917.352 77.3803 919.513 74.731 921.681L74.0978 920.907C76.7537 918.734 79.4717 916.567 82.2504 914.407L82.8642 915.196ZM75.6119 1159.34C78.2064 1161.4 80.8737 1163.46 83.6147 1165.53L83.0127 1166.32C80.2653 1164.25 77.5915 1162.18 74.9904 1160.12L75.6119 1159.34ZM100.007 288.603C96.6243 289.725 93.3471 290.855 90.1786 291.995L89.8401 291.054C93.0171 289.911 96.3023 288.778 99.6925 287.654L100.007 288.603ZM98.4158 903.61C95.7284 905.532 93.088 907.458 90.4957 909.389L89.8983 908.587C92.496 906.652 95.1416 904.722 97.8341 902.797L98.4158 903.61ZM92.0596 1171.74C94.9488 1173.81 97.9124 1175.89 100.951 1177.98L100.386 1178.8C97.3411 1176.71 94.3715 1174.63 91.4763 1172.55L92.0596 1171.74ZM92.2134 396.778C95.2155 397.982 98.2973 399.135 101.457 400.239L101.127 401.183C97.9539 400.074 94.858 398.916 91.8412 397.707L92.2134 396.778ZM115.095 892.135C112.224 894.038 109.398 895.946 106.618 897.859L106.051 897.035C108.836 895.119 111.667 893.208 114.542 891.301L115.095 892.135ZM119.016 282.715C115.687 283.682 112.437 284.656 109.269 285.637L108.973 284.682C112.148 283.699 115.403 282.723 118.737 281.755L119.016 282.715ZM109.576 1183.77C112.103 1185.43 114.678 1187.09 117.301 1188.76L116.765 1189.6C114.137 1187.93 111.558 1186.27 109.027 1184.6L109.576 1183.77ZM111.165 403.403C114.333 404.366 117.57 405.285 120.873 406.16L120.617 407.127C117.302 406.248 114.054 405.326 110.874 404.36L111.165 403.403ZM132.54 880.96C129.6 882.782 126.7 884.608 123.841 886.438L123.302 885.596C126.165 883.763 129.069 881.934 132.013 880.11L132.54 880.96ZM125.317 1193.77C128.038 1195.44 130.807 1197.12 133.625 1198.8L133.114 1199.65C130.291 1197.97 127.518 1196.3 124.793 1194.62L125.317 1193.77ZM138.883 277.265C135.606 278.116 132.39 278.973 129.237 279.835L128.973 278.87C132.13 278.007 135.35 277.149 138.631 276.297L138.883 277.265ZM130.494 408.548C133.761 409.306 137.087 410.026 140.469 410.709L140.271 411.689C136.88 411.004 133.545 410.282 130.268 409.522L130.494 408.548ZM149.256 870.894C146.404 872.565 143.585 874.239 140.799 875.916L140.283 875.06C143.073 873.38 145.896 871.704 148.751 870.031L149.256 870.894ZM142.229 1203.84C145.146 1205.52 148.113 1207.2 151.13 1208.89L150.642 1209.77C147.621 1208.08 144.651 1206.39 141.729 1204.7L142.229 1203.84ZM158.368 272.437C155.013 273.232 151.71 274.031 148.462 274.836L148.221 273.865C151.473 273.06 154.779 272.259 158.138 271.464L158.368 272.437ZM150.459 412.592C153.664 413.154 156.916 413.687 160.214 414.19L160.063 415.179C156.759 414.674 153.499 414.141 150.286 413.577L150.459 412.592ZM166.75 860.916C163.772 862.572 160.824 864.231 157.908 865.894L157.413 865.026C160.332 863.361 163.283 861.7 166.264 860.042L166.75 860.916ZM160.331 1213.97C163.448 1215.66 166.616 1217.35 169.834 1219.05L169.368 1219.94C166.146 1218.24 162.975 1216.54 159.854 1214.84L160.331 1213.97ZM178.562 267.854C175.193 268.588 171.87 269.326 168.594 270.069L168.373 269.094C171.652 268.35 174.978 267.611 178.349 266.877L178.562 267.854ZM170.242 415.612C173.63 416.058 177.061 416.475 180.536 416.864L180.425 417.857C176.944 417.468 173.506 417.05 170.112 416.604L170.242 415.612ZM184.983 851.026C181.885 852.667 178.816 854.312 175.777 855.96L175.3 855.081C178.342 853.431 181.414 851.785 184.515 850.142L184.983 851.026ZM179.627 1224.15C182.322 1225.53 185.05 1226.92 187.811 1228.3L187.363 1229.19C184.598 1227.81 181.868 1226.42 179.171 1225.04L179.627 1224.15ZM198.071 263.75C194.742 264.427 191.451 265.107 188.199 265.791L187.994 264.812C191.248 264.128 194.541 263.447 197.872 262.77L198.071 263.75ZM190.306 417.875C193.598 418.188 196.926 418.479 200.288 418.746L200.209 419.743C196.842 419.475 193.509 419.184 190.212 418.87L190.306 417.875ZM202.508 841.937C199.579 843.425 196.674 844.916 193.793 846.409L193.332 845.522C196.216 844.026 199.124 842.534 202.055 841.045L202.508 841.937ZM196.199 1232.46C199.029 1233.85 201.892 1235.24 204.791 1236.64L204.358 1237.54C201.457 1236.14 198.59 1234.75 195.758 1233.36L196.199 1232.46ZM218.493 259.737C215.016 260.399 211.575 261.064 208.171 261.733L207.979 260.751C211.385 260.082 214.827 259.417 218.306 258.755L218.493 259.737ZM210.479 419.483C213.834 419.701 217.222 419.899 220.641 420.076L220.589 421.075C217.166 420.897 213.774 420.699 210.414 420.481L210.479 419.483ZM220.351 833.047C217.332 834.523 214.335 836.001 211.361 837.483L210.916 836.588C213.892 835.105 216.891 833.625 219.911 832.149L220.351 833.047ZM213.589 1240.82C216.556 1242.22 219.557 1243.62 222.594 1245.01L222.175 1245.92C219.136 1244.52 216.132 1243.12 213.163 1241.73L213.589 1240.82ZM238.105 256.111C234.815 256.703 231.553 257.297 228.321 257.894L228.139 256.911C231.373 256.313 234.637 255.719 237.928 255.127L238.105 256.111ZM238.72 824.23C235.616 825.693 232.533 827.16 229.471 828.629L229.039 827.728C232.103 826.257 235.188 824.79 238.294 823.325L238.72 824.23ZM230.538 420.529C233.866 420.662 237.221 420.777 240.602 420.874L240.574 421.874C237.188 421.776 233.83 421.662 230.499 421.529L230.538 420.529ZM231.807 1249.22C234.913 1250.62 238.054 1252.03 241.231 1253.43L240.826 1254.35C237.647 1252.94 234.504 1251.53 231.396 1250.13L231.807 1249.22ZM257.288 815.621C254.204 817.027 251.139 818.436 248.093 819.848L247.672 818.941C250.721 817.528 253.788 816.118 256.873 814.711L257.288 815.621ZM258.18 252.597C254.78 253.177 251.406 253.76 248.06 254.345L247.888 253.36C251.235 252.774 254.61 252.191 258.012 251.611L258.18 252.597ZM250.865 1257.66C254.112 1259.07 257.394 1260.48 260.711 1261.89L260.319 1262.81C257 1261.4 253.715 1259.99 250.466 1258.58L250.865 1257.66ZM250.828 421.113C254.18 421.174 257.556 421.219 260.957 421.248L260.948 422.248C257.544 422.219 254.165 422.174 250.81 422.113L250.828 421.113ZM275.304 807.527C272.269 808.871 269.25 810.217 266.247 811.566L265.837 810.654C268.841 809.304 271.862 807.957 274.899 806.613L275.304 807.527ZM278.47 249.22C275.11 249.766 271.774 250.314 268.462 250.865L268.298 249.879C271.611 249.328 274.949 248.779 278.31 248.233L278.47 249.22ZM270.771 1266.14C273.749 1267.38 276.754 1268.63 279.788 1269.88L279.407 1270.8C276.372 1269.55 273.365 1268.31 270.386 1267.06L270.771 1266.14ZM270.898 421.289C274.234 421.288 277.591 421.273 280.97 421.244L280.979 422.244C277.597 422.273 274.237 422.288 270.898 422.289L270.898 421.289ZM293.705 799.496C290.607 800.829 287.525 802.165 284.458 803.503L284.058 802.587C287.126 801.248 290.21 799.911 293.309 798.577L293.705 799.496ZM288.441 1273.41C291.35 1274.59 294.284 1275.77 297.243 1276.95L296.872 1277.88C293.912 1276.7 290.976 1275.52 288.065 1274.34L288.441 1273.41ZM298.254 246.077C294.914 246.596 291.596 247.117 288.298 247.641L288.141 246.654C291.44 246.13 294.76 245.608 298.1 245.088L298.254 246.077ZM291.168 421.115C294.54 421.06 297.931 420.991 301.342 420.91L301.366 421.91C297.953 421.991 294.559 422.06 291.185 422.115L291.168 421.115ZM312.465 791.527C309.31 792.85 306.168 794.175 303.042 795.503L302.651 794.583C305.779 793.254 308.922 791.928 312.079 790.605L312.465 791.527ZM306.195 1280.49C309.204 1281.68 312.238 1282.86 315.297 1284.05L314.935 1284.98C311.875 1283.79 308.839 1282.61 305.829 1281.43L306.195 1280.49ZM318.533 242.988C315.113 243.498 311.713 244.011 308.333 244.525L308.183 243.537C311.564 243.022 314.965 242.509 318.385 241.999L318.533 242.988ZM311.285 420.639C314.617 420.538 317.966 420.425 321.331 420.3L321.368 421.3C318 421.424 314.649 421.537 311.315 421.639L311.285 420.639ZM331.222 783.76C328.127 785.026 325.044 786.295 321.973 787.566L321.591 786.642C324.662 785.37 327.747 784.101 330.843 782.834L331.222 783.76ZM324.55 1287.61C327.66 1288.8 330.795 1289.99 333.955 1291.18L333.602 1292.11C330.441 1290.92 327.304 1289.73 324.193 1288.54L324.55 1287.61ZM338.685 240.038C335.389 240.511 332.11 240.987 328.848 241.464L328.703 240.475C331.967 239.997 335.246 239.522 338.543 239.048L338.685 240.038ZM331.477 419.895C334.875 419.749 338.289 419.593 341.718 419.426L341.767 420.425C338.336 420.592 334.92 420.748 331.52 420.894L331.477 419.895ZM349.651 776.304C346.557 777.542 343.474 778.782 340.402 780.025L340.027 779.098C343.1 777.855 346.185 776.614 349.28 775.376L349.651 776.304ZM343.512 1294.75C346.723 1295.94 349.96 1297.14 353.223 1298.33L352.879 1299.27C349.615 1298.08 346.377 1296.88 343.164 1295.69L343.512 1294.75ZM358.642 237.221C355.285 237.687 351.943 238.154 348.616 238.624L348.476 237.634C351.804 237.164 355.146 236.696 358.504 236.231L358.642 237.221ZM351.662 418.917C354.985 418.738 358.322 418.55 361.672 418.353L361.73 419.351C358.379 419.548 355.041 419.736 351.716 419.915L351.662 418.917ZM368.343 768.905C365.207 770.133 362.081 771.364 358.966 772.597L358.598 771.668C361.714 770.434 364.841 769.203 367.978 767.974L368.343 768.905ZM363.087 1301.92C366.401 1303.12 369.74 1304.32 373.106 1305.52L372.77 1306.46C369.403 1305.26 366.062 1304.06 362.747 1302.86L363.087 1301.92ZM378.962 234.449C375.546 234.907 372.145 235.368 368.758 235.83L368.623 234.839C372.01 234.377 375.413 233.916 378.829 233.458L378.962 234.449ZM371.76 417.737C375.135 417.523 378.523 417.3 381.923 417.07L381.991 418.067C378.589 418.298 375.2 418.521 371.823 418.735L371.76 417.737ZM387.277 761.561C384.102 762.78 380.937 764.002 377.781 765.226L377.419 764.294C380.576 763.069 383.742 761.847 386.918 760.628L387.277 761.561ZM383.28 1309.12C386.552 1310.27 389.847 1311.43 393.166 1312.58L392.838 1313.52C389.517 1312.37 386.221 1311.22 382.948 1310.07L383.28 1309.12ZM399.122 231.785C395.807 232.217 392.504 232.65 389.213 233.084L389.082 232.093C392.374 231.658 395.677 231.225 398.993 230.793L399.122 231.785ZM392.013 416.364C395.328 416.126 398.654 415.88 401.989 415.627L402.065 416.625C398.728 416.877 395.401 417.123 392.085 417.362L392.013 416.364ZM406.254 754.34C403.104 755.528 399.962 756.718 396.828 757.91L396.472 756.975C399.607 755.783 402.75 754.592 405.901 753.404L406.254 754.34ZM401.997 1315.63C404.959 1316.65 407.94 1317.67 410.939 1318.69L410.617 1319.63C407.617 1318.61 404.635 1317.59 401.672 1316.58L401.997 1315.63ZM419.153 229.215C415.792 229.64 412.442 230.067 409.103 230.495L408.976 229.504C412.315 229.075 415.665 228.648 419.027 228.223L419.153 229.215ZM412.026 414.848C415.382 414.582 418.747 414.309 422.121 414.03L422.204 415.026C418.828 415.306 415.462 415.579 412.105 415.845L412.026 414.848ZM424.949 747.352C421.818 748.512 418.695 749.675 415.579 750.839L415.229 749.903C418.346 748.738 421.47 747.575 424.601 746.414L424.949 747.352ZM419.994 1321.75C423.031 1322.77 426.087 1323.79 429.162 1324.81L428.846 1325.76C425.77 1324.74 422.713 1323.72 419.675 1322.69L419.994 1321.75ZM439.448 226.682C436.045 227.102 432.651 227.522 429.269 227.944L429.145 226.952C432.528 226.53 435.922 226.109 439.326 225.69L439.448 226.682ZM432.272 413.172C435.599 412.886 438.935 412.594 442.279 412.296L442.367 413.292C439.023 413.59 435.686 413.882 432.358 414.169L432.272 413.172ZM443.813 740.415C440.656 741.567 437.505 742.721 434.361 743.877L434.016 742.938C437.16 741.782 440.312 740.628 443.47 739.475L443.813 740.415ZM438.443 1327.88C441.555 1328.91 444.687 1329.93 447.837 1330.96L447.528 1331.91C444.376 1330.89 441.244 1329.86 438.13 1328.83L438.443 1327.88ZM459.681 224.222C456.342 224.623 453.01 225.026 449.688 225.429L449.567 224.437C452.89 224.033 456.222 223.63 459.562 223.229L459.681 224.222ZM452.278 411.392C455.618 411.085 458.966 410.774 462.321 410.457L462.415 411.452C459.059 411.769 455.711 412.081 452.369 412.388L452.278 411.392ZM462.828 733.53C459.647 734.673 456.472 735.818 453.303 736.966L452.962 736.026C456.132 734.878 459.309 733.732 462.49 732.589L462.828 733.53ZM457.346 1334.04C460.535 1335.07 463.743 1336.1 466.97 1337.13L466.666 1338.08C463.438 1337.05 460.229 1336.02 457.04 1334.99L457.346 1334.04ZM479.747 221.84C476.387 222.234 473.034 222.63 469.69 223.027L469.572 222.034C472.917 221.637 476.27 221.241 479.631 220.846L479.747 221.84ZM481.96 726.702C478.764 727.834 475.573 728.969 472.387 730.106L472.051 729.164C475.238 728.027 478.429 726.892 481.626 725.759L481.96 726.702ZM472.406 409.492C475.774 409.166 479.148 408.835 482.528 408.5L482.627 409.495C479.246 409.83 475.871 410.161 472.502 410.487L472.406 409.492ZM476.708 1340.22C479.973 1341.25 483.258 1342.28 486.562 1343.32L486.263 1344.27C484.361 1343.68 482.466 1343.08 480.576 1342.49C479.183 1342.05 477.793 1341.61 476.407 1341.17L476.708 1340.22ZM500 219.489C496.61 219.878 493.227 220.268 489.851 220.66L489.736 219.667C493.112 219.275 496.496 218.884 499.886 218.495L500 219.489ZM500.859 720.046C497.701 721.151 494.547 722.258 491.397 723.368L491.065 722.424C494.215 721.315 497.37 720.208 500.529 719.102L500.859 720.046ZM492.507 407.499C495.839 407.162 499.176 406.821 502.518 406.476L502.62 407.47C499.278 407.815 495.94 408.157 492.608 408.494L492.507 407.499ZM496.531 1346.42C499.874 1347.46 503.236 1348.49 506.617 1349.53L506.324 1350.48C502.942 1349.45 499.579 1348.41 496.236 1347.38L496.531 1346.42ZM519.852 713.44C516.679 714.537 513.51 715.636 510.345 716.737L510.016 715.792C513.182 714.691 516.352 713.592 519.525 712.495L519.852 713.44ZM520.306 217.18C516.928 217.56 513.557 217.942 510.191 218.324L510.078 217.331C513.444 216.948 516.816 216.567 520.195 216.186L520.306 217.18ZM512.557 405.43C515.909 405.078 519.264 404.723 522.624 404.365L522.73 405.359C519.37 405.718 516.014 406.073 512.662 406.425L512.557 405.43ZM516.82 1352.64C520.24 1353.68 523.68 1354.72 527.14 1355.76L526.852 1356.71C523.391 1355.67 519.951 1354.64 516.529 1353.6L516.82 1352.64ZM538.919 706.882C535.736 707.971 532.555 709.062 529.377 710.155L529.052 709.209C532.231 708.116 535.412 707.025 538.596 705.936L538.919 706.882ZM540.403 214.94C537.043 215.311 533.688 215.683 530.338 216.057L530.227 215.063C533.577 214.689 536.933 214.317 540.293 213.946L540.403 214.94ZM532.699 403.282C536.029 402.922 539.362 402.559 542.698 402.194L542.807 403.188C539.47 403.553 536.137 403.916 532.806 404.276L532.699 403.282ZM536.776 1358.64C537.927 1358.98 539.081 1359.33 540.237 1359.67C541.094 1359.93 541.952 1360.18 542.812 1360.43C543.807 1360.73 544.805 1361.02 545.803 1361.32L545.52 1362.28C542.496 1361.39 539.486 1360.49 536.491 1359.6L536.776 1358.64ZM558.046 700.374C554.854 701.454 551.664 702.537 548.476 703.622L548.154 702.675C551.343 701.59 554.533 700.507 557.725 699.426L558.046 700.374ZM560.622 212.726C557.243 213.092 553.869 213.46 550.498 213.829L550.39 212.835C553.76 212.466 557.135 212.098 560.515 211.731L560.622 212.726ZM552.715 401.09C556.057 400.72 559.402 400.347 562.748 399.973L562.86 400.967C559.513 401.341 556.168 401.714 552.825 402.084L552.715 401.09ZM554.918 1364C557.97 1364.9 561.037 1365.79 564.119 1366.69L563.84 1367.65C560.757 1366.75 557.69 1365.86 554.636 1364.96L554.918 1364ZM577.156 693.933C573.972 695.001 570.789 696.072 567.607 697.144L567.288 696.196C570.47 695.124 573.654 694.053 576.838 692.985L577.156 693.933ZM580.947 210.537C577.552 210.899 574.16 211.263 570.773 211.628L570.666 210.634C574.054 210.269 577.445 209.905 580.841 209.542L580.947 210.537ZM572.795 398.844C576.142 398.466 579.491 398.087 582.842 397.706L582.954 398.7C579.604 399.081 576.254 399.46 572.907 399.838L572.795 398.844ZM573.408 1369.38C576.518 1370.28 579.644 1371.17 582.784 1372.07L582.509 1373.03C579.368 1372.14 576.242 1371.24 573.13 1370.34L573.408 1369.38ZM596.27 687.547C593.084 688.607 589.897 689.67 586.711 690.734L586.395 689.785C589.581 688.721 592.768 687.659 595.955 686.598L596.27 687.547ZM601.097 208.4C597.734 208.754 594.374 209.109 591.017 209.465L590.911 208.47C594.268 208.114 597.629 207.759 600.992 207.405L601.097 208.4ZM592.248 1374.77C595.418 1375.67 598.602 1376.57 601.801 1377.47L601.53 1378.43C598.33 1377.53 595.145 1376.63 591.975 1375.73L592.248 1374.77ZM592.86 396.564C596.201 396.182 599.542 395.798 602.884 395.414L602.998 396.408C599.656 396.792 596.314 397.175 592.974 397.557L592.86 396.564ZM615.391 681.209C612.204 682.262 609.018 683.316 605.831 684.372L605.516 683.423C608.703 682.367 611.891 681.312 615.077 680.26L615.391 681.209ZM621.305 206.286C617.933 206.636 614.562 206.988 611.194 207.34L611.09 206.345C614.458 205.993 617.829 205.642 621.202 205.291L621.305 206.286ZM611.442 1380.18C614.67 1381.08 617.913 1381.98 621.171 1382.89L620.904 1383.85C617.645 1382.95 614.402 1382.04 611.173 1381.14L611.442 1380.18ZM612.911 394.259C616.253 393.874 619.596 393.487 622.938 393.101L623.053 394.094C619.711 394.481 616.368 394.867 613.026 395.253L612.911 394.259ZM634.5 674.919C631.317 675.964 628.133 677.01 624.948 678.058L624.635 677.109C627.821 676.06 631.005 675.014 634.189 673.969L634.5 674.919ZM630.99 1385.6C634.278 1386.5 637.581 1387.41 640.898 1388.32L640.635 1389.28C637.316 1388.37 634.013 1387.47 630.725 1386.56L630.99 1385.6ZM641.563 204.194C638.183 204.541 634.805 204.889 631.429 205.237L631.326 204.243C634.703 203.894 638.081 203.546 641.46 203.199L641.563 204.194ZM632.969 391.939L636.268 391.556L643.008 390.775L643.123 391.768L635.79 392.618L633.084 392.932L632.969 391.939ZM648.072 670.476C646.73 670.915 645.388 671.353 644.046 671.792L643.735 670.842C646.945 669.792 650.153 668.744 653.36 667.698L653.67 668.649C651.804 669.257 649.938 669.867 648.072 670.476ZM650.896 1391.04C653.574 1391.76 656.261 1392.49 658.959 1393.21L660.984 1393.76L660.724 1394.73C657.346 1393.82 653.982 1392.91 650.634 1392L650.896 1391.04ZM661.802 202.127C658.432 202.469 655.062 202.813 651.693 203.157L651.591 202.162C654.96 201.818 658.33 201.475 661.701 201.132L661.802 202.127ZM653.04 389.611C656.383 389.224 659.724 388.837 663.063 388.45L663.178 389.444C659.839 389.83 656.498 390.217 653.156 390.605L653.04 389.611ZM658.442 7.68465C661.424 7.63592 664.824 7.58711 668.616 7.54278L668.628 8.54271C664.837 8.58703 661.439 8.63581 658.459 8.68451L658.442 7.68465ZM667.279 664.218C665.953 664.649 664.627 665.08 663.3 665.511L662.991 664.56C666.199 663.517 669.405 662.475 672.608 661.435L672.917 662.386C671.038 662.996 669.159 663.607 667.279 664.218ZM671.161 1396.49C674.569 1397.4 677.991 1398.31 681.429 1399.22L681.173 1400.19C679.223 1399.67 677.278 1399.15 675.338 1398.64C673.857 1398.24 672.378 1397.85 670.903 1397.45L671.161 1396.49ZM682.029 200.082C678.657 200.422 675.286 200.762 671.915 201.102L671.814 200.108C675.186 199.767 678.557 199.427 681.929 199.088L682.029 200.082ZM673.073 387.293C676.417 386.907 679.759 386.522 683.097 386.138L683.212 387.132C681.179 387.366 679.146 387.6 677.111 387.834C675.804 387.985 674.496 388.136 673.188 388.287L673.073 387.293ZM678.768 7.44496C681.977 7.4204 685.382 7.40017 688.973 7.38602L688.977 8.38602C685.387 8.40016 681.984 8.42038 678.776 8.44493L678.768 7.44496ZM692.1 656.172C691.107 656.493 690.113 656.815 689.119 657.136C686.92 657.848 684.72 658.56 682.518 659.273L682.21 658.322C685.407 657.286 688.602 656.253 691.793 655.221L692.1 656.172ZM691.787 1401.96C695.106 1402.83 698.439 1403.7 701.785 1404.58L701.532 1405.54C698.185 1404.67 694.852 1403.8 691.533 1402.92L691.787 1401.96ZM702.252 198.056C698.882 198.392 695.512 198.729 692.142 199.067L692.042 198.072C695.413 197.734 698.783 197.397 702.152 197.061L702.252 198.056ZM693.16 384.984C696.511 384.601 699.858 384.219 703.202 383.839L703.315 384.832C699.972 385.213 696.624 385.594 693.274 385.978L693.16 384.984ZM699.302 7.36379C702.505 7.36252 705.827 7.36637 709.262 7.37628L709.259 8.37627C705.825 8.36637 702.504 8.36252 699.302 8.36379L699.302 7.36379ZM711.202 650.007C708.026 651.03 704.846 652.056 701.662 653.084L701.355 652.132C703.029 651.592 704.701 651.052 706.373 650.513C707.881 650.027 709.389 649.541 710.895 649.055L711.202 650.007ZM710.924 1406.96C713.982 1407.75 717.052 1408.55 720.133 1409.34L719.883 1410.31C717.982 1409.82 716.085 1409.33 714.193 1408.84C713.018 1408.53 711.845 1408.23 710.673 1407.92L710.924 1406.96ZM716.588 196.629C715.177 196.769 713.767 196.909 712.356 197.049L712.257 196.054C714.271 195.854 716.285 195.654 718.298 195.454C719.663 195.319 721.027 195.184 722.391 195.048L722.49 196.043C720.523 196.238 718.556 196.434 716.588 196.629ZM713.222 382.704C716.558 382.327 719.889 381.953 723.216 381.581L723.327 382.575C720.001 382.947 716.669 383.321 713.334 383.698L713.222 382.704ZM719.451 7.42234C722.762 7.44267 726.162 7.46875 729.647 7.50128L729.637 8.50124C726.153 8.46872 722.754 8.44265 719.445 8.42232L719.451 7.42234ZM730.276 643.867C727.094 644.89 723.908 645.915 720.717 646.942L720.41 645.99C722.019 645.472 723.627 644.955 725.234 644.438L729.97 642.915L730.276 643.867ZM729.409 1411.73C732.513 1412.52 735.629 1413.32 738.756 1414.11L738.509 1415.08C735.381 1414.29 732.265 1413.49 729.161 1412.69L729.409 1411.73ZM742.768 194.039C739.392 194.372 736.015 194.705 732.635 195.039L732.536 194.044C735.916 193.71 739.294 193.377 742.67 193.044L742.768 194.039ZM733.249 380.464C736.617 380.091 739.979 379.721 743.336 379.353L743.444 380.347C740.088 380.715 736.726 381.085 733.359 381.458L733.249 380.464ZM744.447 639.312L739.989 640.744L739.683 639.792L744.936 638.104L749.363 636.682L749.669 637.634L744.447 639.312ZM739.726 7.61106C743.081 7.65281 746.506 7.7006 749.997 7.75499L749.981 8.75487C746.492 8.7005 743.068 8.65272 739.713 8.61098L739.726 7.61106ZM748.171 1416.51C751.322 1417.3 754.483 1418.1 757.657 1418.9L757.413 1419.87C754.239 1419.07 751.077 1418.27 747.926 1417.48L748.171 1416.51ZM762.989 192.051C759.624 192.381 756.257 192.712 752.887 193.043L752.789 192.048C756.159 191.716 759.527 191.386 762.891 191.055L762.989 192.051ZM753.388 378.26C756.732 377.898 760.071 377.54 763.403 377.185L763.509 378.18C760.177 378.534 756.839 378.893 753.495 379.254L753.388 378.26ZM768.92 631.453L759.314 634.537L759.008 633.585L768.614 630.501L768.92 631.453ZM760.03 7.92661C763.398 7.98936 766.821 8.05829 770.297 8.13386L770.276 9.13362C766.801 9.05807 763.378 8.98916 760.011 8.92644L760.03 7.92661ZM767.212 1421.3C770.408 1422.1 773.617 1422.9 776.836 1423.7L776.595 1424.67C773.375 1423.87 770.166 1423.07 766.969 1422.27L767.212 1421.3ZM783.137 190.076C779.786 190.404 776.431 190.732 773.073 191.062L772.975 190.066C776.333 189.737 779.688 189.409 783.039 189.081L783.137 190.076ZM773.378 376.132C776.742 375.779 780.1 375.431 783.449 375.086L783.551 376.081C780.202 376.425 776.846 376.774 773.482 377.126L773.378 376.132ZM788.009 625.321C784.842 626.339 781.668 627.359 778.486 628.381L778.18 627.429C781.362 626.407 784.536 625.387 787.703 624.369L788.009 625.321ZM780.339 8.36744C783.704 8.45086 787.114 8.54053 790.566 8.63684L790.538 9.63645C787.087 9.54017 783.678 9.45052 780.314 9.36714L780.339 8.36744ZM792.463 1427.57C793.739 1427.88 795.017 1428.19 796.297 1428.51L796.058 1429.48C792.791 1428.68 789.535 1427.88 786.292 1427.07L786.531 1426.1C788.504 1426.59 790.482 1427.08 792.463 1427.57ZM803.5 188.085L793.331 189.079L793.234 188.083L803.402 187.089L803.5 188.085ZM793.556 374.057C796.917 373.719 800.269 373.385 803.613 373.055L803.711 374.051C800.368 374.38 797.016 374.714 793.656 375.052L793.556 374.057ZM806.918 619.24C803.782 620.25 800.639 621.261 797.487 622.275L797.181 621.323C800.333 620.309 803.476 619.298 806.611 618.289L806.918 619.24ZM800.652 8.93377C804.007 9.03771 807.398 9.14796 810.824 9.26485L810.79 10.2643C807.365 10.1474 803.975 10.0372 800.621 9.93329L800.652 8.93377ZM806.133 1430.92C807.531 1431.26 808.932 1431.6 810.334 1431.94C811.764 1432.29 813.195 1432.64 814.629 1432.99L816.039 1433.33L815.803 1434.3C812.489 1433.5 809.186 1432.69 805.895 1431.89L806.133 1430.92ZM823.748 186.106L813.639 187.094L813.542 186.099L823.651 185.111L823.748 186.106ZM813.617 372.082C816.942 371.763 820.259 371.448 823.565 371.139L823.658 372.135C820.353 372.444 817.037 372.758 813.713 373.077L813.617 372.082ZM820.235 614.949L816.694 616.091L816.388 615.139C819.644 614.089 822.891 613.042 826.127 611.997L826.435 612.948C824.372 613.615 822.305 614.281 820.235 614.949ZM820.975 9.62716C824.317 9.75171 827.689 9.88263 831.089 10.0202L831.049 11.0194C827.649 10.8819 824.278 10.751 820.938 10.6265L820.975 9.62716ZM826.016 1435.74C829.353 1436.55 832.703 1437.36 836.064 1438.16L835.831 1439.13C832.469 1438.33 829.119 1437.52 825.781 1436.72L826.016 1435.74ZM833.721 370.205C837.105 369.898 840.477 369.598 843.839 369.304L843.926 370.3C840.566 370.594 837.194 370.894 833.811 371.201L833.721 370.205ZM843.865 184.139C840.524 184.466 837.177 184.793 833.824 185.121L833.727 184.126L839.354 183.576L843.767 183.144L843.865 184.139ZM845.732 606.704C842.537 607.74 839.331 608.779 836.115 609.82L835.807 608.868C837.773 608.232 839.736 607.596 841.694 606.962C842.939 606.559 844.182 606.156 845.424 605.753L845.732 606.704ZM841.31 10.4502C844.639 10.5957 847.993 10.7476 851.371 10.9061L851.324 11.905C847.947 11.7465 844.594 11.5947 841.266 11.4492L841.31 10.4502ZM846.183 1440.58C848.674 1441.18 851.171 1441.77 853.675 1442.37L856.374 1443.01L856.143 1443.98C854.465 1443.58 852.789 1443.18 851.116 1442.79C849.391 1442.38 847.67 1441.97 845.951 1441.56L846.183 1440.58ZM853.888 368.441C857.226 368.161 860.551 367.886 863.865 367.619L863.945 368.616C860.633 368.883 857.308 369.157 853.972 369.438L853.888 368.441ZM864.21 182.145C860.811 182.479 857.405 182.813 853.992 183.147L853.895 182.152C857.308 181.818 860.714 181.483 864.112 181.15L864.21 182.145ZM864.768 600.514C861.618 601.542 858.457 602.571 855.284 603.603L854.975 602.652C858.147 601.62 861.308 600.591 864.458 599.564L864.768 600.514ZM861.575 11.4021C864.919 11.5703 868.285 11.745 871.671 11.9266L871.617 12.9252C868.232 12.7436 864.868 12.5689 861.524 12.4008L861.575 11.4021ZM873.951 1447.15C874.957 1447.39 875.963 1447.63 876.97 1447.86L876.742 1448.84C873.285 1448.03 869.84 1447.22 866.407 1446.41L866.636 1445.43C869.069 1446.01 871.507 1446.58 873.951 1447.15ZM883.52 594.379C880.419 595.397 877.306 596.417 874.18 597.44L873.87 596.489C876.995 595.467 880.108 594.447 883.208 593.429L883.52 594.379ZM873.89 366.829C877.302 366.567 880.7 366.313 884.083 366.067L884.156 367.064C880.774 367.31 877.377 367.564 873.967 367.826L873.89 366.829ZM884.509 180.148C881.141 180.48 877.766 180.813 874.383 181.145L874.285 180.15C877.668 179.817 881.043 179.485 884.41 179.153L884.509 180.148ZM881.805 12.4875C885.181 12.68 888.575 12.8795 891.985 13.0861L891.925 14.0842C888.515 13.8778 885.123 13.6784 881.748 13.4858L881.805 12.4875ZM903.138 587.909C899.896 588.983 896.639 590.059 893.367 591.138L893.054 590.189C896.326 589.11 899.582 588.033 902.823 586.96L903.138 587.909ZM894.188 365.354C897.542 365.125 900.88 364.905 904.202 364.693L904.266 365.691C900.945 365.903 897.609 366.123 894.257 366.352L894.188 365.354ZM904.608 178.16C901.276 178.49 897.935 178.822 894.585 179.153L894.486 178.158L898.056 177.804C900.211 177.591 902.362 177.378 904.509 177.165L904.608 178.16ZM902.065 13.7142C905.44 13.9305 908.831 14.1539 912.235 14.3845L912.168 15.3822C908.764 15.1517 905.375 14.9284 902.001 14.7122L902.065 13.7142ZM922.396 581.495C919.219 582.559 916.025 583.626 912.815 584.694L912.499 583.746C915.709 582.677 918.902 581.611 922.079 580.547L922.396 581.495ZM914.121 364.087C917.553 363.885 920.966 363.694 924.361 363.514L924.414 364.512C921.021 364.693 917.609 364.884 914.18 365.085L914.121 364.087ZM924.899 176.138C921.484 176.48 918.059 176.822 914.623 177.164L914.524 176.169C917.96 175.827 921.385 175.485 924.8 175.143L924.899 176.138ZM922.344 15.0878C925.703 15.3277 929.074 15.5748 932.457 15.8291L932.382 16.8263C929.001 16.572 925.631 16.3251 922.273 16.0852L922.344 15.0878ZM941.256 575.143C938.148 576.196 935.021 577.253 931.878 578.311L931.559 577.364C934.701 576.305 937.827 575.249 940.935 574.195L941.256 575.143ZM934.526 363.003C937.895 362.844 941.245 362.696 944.575 362.559L944.616 363.558C941.288 363.695 937.94 363.843 934.573 364.002L934.526 363.003ZM945.256 174.091C941.886 174.431 938.504 174.772 935.111 175.114L935.011 174.119C937.17 173.901 939.325 173.684 941.475 173.467C942.703 173.343 943.93 173.22 945.155 173.096L945.256 174.091ZM942.63 16.6138C945.978 16.8786 949.336 17.1507 952.702 17.4302L952.62 18.4268C949.254 18.1474 945.898 17.8754 942.551 17.6107L942.63 16.6138ZM960.089 568.713C956.922 569.802 953.735 570.894 950.528 571.989L950.205 571.042C953.411 569.948 956.598 568.856 959.764 567.767L960.089 568.713ZM954.503 362.184C957.923 362.067 961.321 361.962 964.695 361.871L964.722 362.87C961.35 362.962 957.955 363.066 954.538 363.184L954.503 362.184ZM965.332 172.049C962.011 172.389 958.677 172.729 955.33 173.069L955.229 172.074C958.575 171.734 961.909 171.394 965.23 171.054L965.332 172.049ZM962.828 18.2915C966.196 18.5848 969.571 18.8857 972.953 19.1944L972.862 20.1903C969.482 19.8817 966.108 19.5809 962.741 19.2877L962.828 18.2915ZM979.644 561.928C976.431 563.053 973.195 564.181 969.936 565.312L969.608 564.367C972.866 563.237 976.102 562.109 979.313 560.985L979.644 561.928ZM974.907 361.634C978.287 361.57 981.642 361.52 984.972 361.484L984.983 362.484C981.656 362.52 978.304 362.57 974.927 362.634L974.907 361.634ZM985.587 169.962C982.159 170.318 978.716 170.674 975.259 171.03L975.156 170.035L977.592 169.784L979.511 169.586C981.507 169.379 983.498 169.173 985.484 168.967L985.587 169.962ZM983.041 20.1365C986.41 20.4584 989.784 20.788 993.163 21.1257L993.064 22.1208C989.686 21.7832 986.313 21.4537 982.946 21.132L983.041 20.1365ZM998.628 555.215C995.513 556.328 992.373 557.444 989.209 558.563L988.876 557.62C992.039 556.501 995.178 555.386 998.291 554.273L998.628 555.215ZM994.884 361.423C998.319 361.417 1001.73 361.428 1005.1 361.457L1005.09 362.457C1001.72 362.428 998.317 362.417 994.885 362.423L994.884 361.423ZM1005.98 167.826C1002.61 168.182 999.23 168.538 995.831 168.894L995.726 167.899C999.125 167.543 1002.51 167.188 1005.88 166.832L1005.98 167.826ZM1003.26 22.1572C1006.62 22.5082 1009.98 22.8672 1013.35 23.2345L1013.24 24.2286C1009.87 23.8615 1006.51 23.5026 1003.15 23.1518L1003.26 22.1572ZM1017.01 548.572C1014 549.673 1010.96 550.778 1007.89 551.885L1007.56 550.944C1010.62 549.838 1013.65 548.734 1016.66 547.633L1017.01 548.572ZM1015.32 361.599C1018.7 361.665 1022.04 361.749 1025.35 361.853L1025.32 362.852C1022.01 362.749 1018.68 362.664 1015.3 362.599L1015.32 361.599ZM1025.99 165.693C1022.69 166.048 1019.37 166.404 1016.04 166.759L1015.93 165.765C1019.27 165.409 1022.58 165.054 1025.89 164.698L1025.99 165.693ZM1023.45 24.3613C1026.81 24.7437 1030.17 25.1346 1033.53 25.5339L1033.41 26.5269C1030.05 26.1278 1026.69 25.7371 1023.34 25.3549L1023.45 24.3613ZM1036.44 541.363C1033.2 542.582 1029.93 543.806 1026.62 545.033L1026.27 544.095C1029.58 542.869 1032.85 541.646 1036.09 540.427L1036.44 541.363ZM1035.19 362.222C1038.68 362.376 1042.14 362.552 1045.55 362.753L1045.49 363.751C1042.08 363.551 1038.63 363.374 1035.14 363.221L1035.19 362.222ZM1046.3 163.481C1042.87 163.859 1039.41 164.238 1035.94 164.616L1035.83 163.622C1039.3 163.244 1042.76 162.865 1046.19 162.487L1046.3 163.481ZM1043.6 26.7576C1046.96 27.1741 1050.32 27.5993 1053.68 28.0334L1053.55 29.0251C1050.2 28.5913 1046.84 28.1663 1043.48 27.75L1043.6 26.7576ZM1055.44 534.089C1052.35 535.294 1049.22 536.503 1046.05 537.715L1045.69 536.781C1048.86 535.569 1051.99 534.361 1055.08 533.157L1055.44 534.089ZM1055.69 363.427C1059.03 363.676 1062.33 363.95 1065.58 364.249L1065.49 365.245C1062.24 364.946 1058.95 364.673 1055.62 364.424L1055.69 363.427ZM1066.66 161.209C1063.31 161.588 1059.94 161.967 1056.55 162.345L1056.44 161.351C1059.83 160.973 1063.2 160.594 1066.55 160.215L1066.66 161.209ZM1063.75 29.3624C1067.1 29.8144 1070.45 30.2754 1073.8 30.7457L1073.66 31.736C1070.32 31.2659 1066.97 30.8051 1063.61 30.3534L1063.75 29.3624ZM1073.55 526.903C1070.61 528.093 1067.63 529.287 1064.61 530.485L1064.24 529.555C1067.26 528.358 1070.24 527.165 1073.17 525.976L1073.55 526.903ZM1075.66 365.272C1079.11 365.658 1082.51 366.074 1085.86 366.523L1085.72 367.514C1082.39 367.066 1078.99 366.651 1075.55 366.266L1075.66 365.272ZM1086.5 158.933C1083.24 159.313 1079.95 159.693 1076.65 160.072L1076.53 159.078C1079.84 158.699 1083.12 158.32 1086.38 157.94L1086.5 158.933ZM1092.72 518.952C1089.51 520.317 1086.24 521.688 1082.92 523.063L1082.54 522.139C1085.86 520.765 1089.12 519.396 1092.32 518.031L1092.72 518.952ZM1083.85 32.187C1087.21 32.6778 1090.56 33.1781 1093.9 33.688L1093.75 34.6765C1090.41 34.1669 1087.06 33.667 1083.71 33.1765L1083.85 32.187ZM1095.73 367.966C1099.08 368.498 1102.37 369.066 1105.6 369.67L1105.42 370.653C1102.2 370.05 1098.92 369.485 1095.57 368.954L1095.73 367.966ZM1107.05 156.499C1103.63 156.911 1100.19 157.322 1096.72 157.733L1096.6 156.74C1100.07 156.329 1103.52 155.918 1106.93 155.506L1107.05 156.499ZM1111.27 510.817C1108.3 512.163 1105.26 513.514 1102.17 514.87L1101.77 513.954C1104.86 512.599 1107.89 511.25 1110.86 509.906L1111.27 510.817ZM1103.92 35.2468C1107.27 35.7793 1110.62 36.3217 1113.96 36.8742L1113.79 37.8608C1110.46 37.3086 1107.11 36.7666 1103.76 36.2345L1103.92 35.2468ZM1115.72 371.73C1119.03 372.459 1122.26 373.232 1125.42 374.049L1125.17 375.017C1122.02 374.203 1118.8 373.433 1115.51 372.707L1115.72 371.73ZM1127.19 154.024C1123.9 154.437 1120.57 154.85 1117.21 155.263L1117.09 154.27C1120.45 153.858 1123.77 153.445 1127.07 153.031L1127.19 154.024ZM1128.79 502.612C1125.94 504.001 1123.01 505.394 1120.02 506.793L1119.6 505.887C1122.59 504.491 1125.5 503.099 1128.35 501.713L1128.79 502.612ZM1123.97 38.5655C1127.3 39.1399 1130.63 39.7247 1133.94 40.3199L1133.76 41.3042C1130.45 40.7093 1127.13 40.125 1123.8 39.551L1123.97 38.5655ZM1135.14 376.778C1138.48 377.795 1141.73 378.869 1144.88 380.002L1144.55 380.943C1141.41 379.816 1138.18 378.747 1134.85 377.735L1135.14 376.778ZM1147.17 151.464C1143.81 151.904 1140.42 152.343 1136.99 152.782L1136.87 151.79C1140.29 151.351 1143.68 150.912 1147.04 150.472L1147.17 151.464ZM1147.66 492.959C1144.71 494.554 1141.66 496.156 1138.52 497.765L1138.06 496.874C1141.2 495.269 1144.25 493.67 1147.19 492.08L1147.66 492.959ZM1143.96 42.1579C1147.29 42.7814 1150.62 43.4159 1153.92 44.0616L1153.73 45.0431C1150.43 44.3979 1147.11 43.7639 1143.78 43.1408L1143.96 42.1579ZM1154.04 383.579C1157.3 384.962 1160.44 386.419 1163.45 387.953L1162.99 388.844C1160 387.321 1156.89 385.874 1153.65 384.499L1154.04 383.579ZM1164.15 483.475C1161.61 485.042 1158.96 486.616 1156.21 488.196L1155.72 487.33C1158.46 485.754 1161.1 484.185 1163.63 482.624L1164.15 483.475ZM1167.67 148.705C1164.33 149.166 1160.96 149.627 1157.54 150.087L1157.41 149.095C1160.82 148.636 1164.2 148.175 1167.53 147.714L1167.67 148.705ZM1163.87 46.0438C1167.21 46.7224 1170.53 47.4127 1173.84 48.1149L1173.64 49.0931C1170.33 48.3915 1167.01 47.7018 1163.68 47.0237L1163.87 46.0438ZM1172.19 392.851C1175.14 394.665 1177.93 396.571 1180.57 398.571L1179.97 399.368C1177.36 397.389 1174.59 395.501 1171.67 393.703L1172.19 392.851ZM1181.78 471.405C1179.18 473.418 1176.39 475.444 1173.41 477.481L1172.84 476.655C1175.81 474.628 1178.59 472.615 1181.17 470.614L1181.78 471.405ZM1187.18 145.926C1184.02 146.391 1180.81 146.855 1177.55 147.318L1177.41 146.328C1180.66 145.865 1183.87 145.402 1187.04 144.937L1187.18 145.926ZM1183.73 50.2573C1187.06 50.994 1190.37 51.743 1193.66 52.5048L1193.44 53.4791C1190.15 52.7181 1186.84 51.9697 1183.51 51.2337L1183.73 50.2573ZM1188.31 405.128C1190.77 407.479 1193.06 409.941 1195.15 412.519L1194.37 413.149C1192.31 410.606 1190.05 408.175 1187.62 405.852L1188.31 405.128ZM1196.36 457.898C1194.23 460.381 1191.77 462.88 1188.99 465.396L1188.32 464.654C1191.07 462.162 1193.5 459.693 1195.6 457.247L1196.36 457.898ZM1207.97 142.761C1204.61 143.292 1201.2 143.822 1197.73 144.351L1197.58 143.362C1201.05 142.834 1204.46 142.304 1207.81 141.773L1207.97 142.761ZM1200.99 420.834C1201.86 422.283 1202.68 423.762 1203.45 425.274C1204.29 426.942 1204.93 428.624 1205.37 430.318L1204.41 430.57C1203.98 428.949 1203.37 427.334 1202.55 425.726C1201.8 424.236 1200.99 422.777 1200.13 421.35L1200.99 420.834ZM1205.66 440.603C1205.08 443.566 1203.94 446.548 1202.27 449.548L1201.4 449.064C1203.02 446.14 1204.12 443.255 1204.68 440.41L1205.66 440.603ZM1203.55 54.8399C1206.84 55.6341 1210.11 56.4414 1213.36 57.262L1213.12 58.2316C1209.87 57.4119 1206.6 56.6054 1203.32 55.812L1203.55 54.8399ZM1227.39 139.555C1224.28 140.092 1221.1 140.628 1217.86 141.162L1217.7 140.176C1220.93 139.642 1224.11 139.107 1227.22 138.57L1227.39 139.555ZM1223.26 59.8142C1226.53 60.6789 1229.79 61.5577 1233.02 62.4507L1232.75 63.4146C1229.52 62.5226 1226.27 61.6448 1223 60.7811L1223.26 59.8142ZM1248.1 135.78C1244.8 136.418 1241.4 137.055 1237.93 137.689L1237.75 136.705C1241.22 136.072 1244.61 135.436 1247.91 134.798L1248.1 135.78ZM1242.82 65.2214C1246.09 66.1693 1249.34 67.1325 1252.56 68.1114L1252.27 69.0682C1249.05 68.0907 1245.81 67.1287 1242.54 66.1819L1242.82 65.2214ZM1267.67 131.725C1264.47 132.439 1261.16 133.149 1257.73 133.856L1257.53 132.877C1260.95 132.17 1264.26 131.461 1267.45 130.749L1267.67 131.725ZM1262.21 71.1118C1265.48 72.1545 1268.72 73.2141 1271.93 74.2907L1271.61 75.2388C1268.41 74.1638 1265.17 73.1058 1261.9 72.0645L1262.21 71.1118ZM1287.41 126.87C1284.42 127.689 1281.28 128.502 1277.99 129.311L1277.75 128.34C1281.03 127.533 1284.17 126.722 1287.15 125.906L1287.41 126.87ZM1281.47 77.5723C1284.71 78.7155 1287.91 79.8772 1291.08 81.0576L1290.73 81.9947C1287.57 80.8164 1284.37 79.6566 1281.13 78.5152L1281.47 77.5723ZM1307.05 120.559C1304.15 121.684 1300.96 122.799 1297.49 123.903L1297.19 122.95C1300.64 121.851 1303.81 120.743 1306.69 119.627L1307.05 120.559ZM1300.54 84.6813C1302.1 85.2949 1303.65 85.9133 1305.19 86.5365C1307.19 87.3457 1309.04 88.1499 1310.76 88.9492L1310.34 89.856C1308.64 89.0646 1306.8 88.2671 1304.81 87.4634C1303.28 86.8414 1301.73 86.2242 1300.17 85.6118L1300.54 84.6813ZM1324.43 110.648C1322.59 112.58 1319.93 114.46 1316.5 116.297L1316.03 115.416C1319.41 113.605 1321.97 111.784 1323.71 109.958L1324.43 110.648ZM1319.44 93.6947C1323.18 96.1797 1325.61 98.6563 1326.72 101.147L1325.81 101.555C1324.81 99.3169 1322.56 96.97 1318.89 94.5272L1319.44 93.6947Z" fill="black"/>
</svg>
