<svg width="32" height="24" viewBox="0 0 32 24" fill="none" xmlns="http://www.w3.org/2000/svg">
<path d="M0.668512 1.94725C5.06039 5.66669 12.7668 12.2103 15.0318 14.2506C15.3358 14.526 15.6619 14.666 16.0005 14.666C16.3384 14.666 16.6639 14.5273 16.9673 14.2533C19.2343 12.2109 26.9406 5.66669 31.3326 1.94725C31.606 1.71612 31.6477 1.30987 31.4263 1.02731C30.9146 0.374375 30.1516 0 29.3338 0H2.6672C1.84951 0 1.08645 0.374375 0.574762 1.02738C0.353387 1.30988 0.395075 1.71612 0.668512 1.94725Z" fill="#3E5269"/>
<path d="M31.6133 3.96279C31.377 3.85279 31.099 3.89116 30.9024 4.05916C26.0319 8.18804 19.8158 13.4804 17.86 15.2427C16.7623 16.2336 15.2389 16.2336 14.1386 15.2414C12.054 13.3632 5.0735 7.42891 1.09763 4.0591C0.899688 3.8911 0.621063 3.85404 0.386687 3.96273C0.151062 4.07216 0 4.30785 0 4.5676V21.3332C0 22.804 1.19594 23.9999 2.66669 23.9999H29.3334C30.8041 23.9999 32 22.804 32 21.3332V4.5676C32 4.30785 31.8489 4.07154 31.6133 3.96279Z" fill="#3E5269"/>
</svg>
