<svg width="150" height="150" viewBox="0 0 150 150" fill="none" xmlns="http://www.w3.org/2000/svg">
<path d="M46.4583 149.999C46.1833 149.999 45.9021 149.993 45.627 149.968C42.4895 149.724 39.627 148.131 37.7708 145.587L24.6958 127.662C24.3833 127.231 24.0083 126.856 23.577 126.537L4.3833 112.406C1.85205 110.543 0.264549 107.674 0.0270485 104.537C-0.210451 101.406 0.927049 98.3244 3.15205 96.1057C6.4583 92.8057 11.352 91.8807 15.627 93.7494L30.1645 100.099L59.7208 68.2557C60.2458 67.6869 60.2458 67.0369 60.202 66.7057C60.152 66.3744 59.977 65.7557 59.302 65.3494L8.4458 38.4307C5.2333 36.4994 3.27705 33.4807 2.8583 30.0244C2.4333 26.5557 3.60205 23.1557 6.0708 20.6869C8.48955 18.2682 11.9145 17.2494 15.2583 17.9994L89.577 33.7369C90.2583 33.8869 90.9396 33.6744 91.3958 33.1932L118.052 4.88068C120.902 1.86193 125.702 0.0869263 131.227 0.00567634C136.877 -0.100574 142.202 1.69943 145.258 4.76193C148.308 7.81193 150.083 13.0619 150.002 18.7932C149.921 24.3182 148.152 29.1182 145.14 31.9682C145.14 31.9682 145.14 31.9682 145.133 31.9682L116.746 58.7244C116.24 59.1994 116.027 59.8994 116.183 60.5557L133.277 135.731C134.071 139.093 133.077 142.599 130.608 145.068C128.158 147.518 124.783 148.687 121.327 148.293C117.883 147.887 114.865 145.962 113.046 143.006L84.6083 90.4432C84.3333 90.0057 83.7145 89.8307 83.3833 89.7869C83.052 89.7494 82.4145 89.7494 81.852 90.2744L50.0645 119.824L56.4145 134.368C58.2833 138.649 57.3583 143.543 54.0583 146.849C52.0333 148.874 49.302 149.999 46.4583 149.999ZM141.915 28.5619H141.977H141.915Z" fill="#3E5269"/>
</svg>
