<svg width="142" height="150" viewBox="0 0 142 150" fill="none" xmlns="http://www.w3.org/2000/svg">
<path d="M103.698 0V8.82365H113.774L63.6277 48.5155L63.6506 18.22L0.380859 65.5081L5.15025 72.7275L55.3418 35.2141L55.3186 66.0909L120.289 14.665V26.4707H128.585V0L103.698 0Z" fill="#3E5269"/>
<path d="M102.55 44.1177C100.893 44.1177 99.5496 45.4608 99.5496 47.1177V138.177C99.5496 139.834 98.2065 141.177 96.5496 141.177H94.254C92.5972 141.177 91.254 139.834 91.254 138.177V78.0962C91.254 76.4393 89.9109 75.0962 88.254 75.0962H52.775C51.1181 75.0962 49.775 76.4393 49.775 78.0962V138.177C49.775 139.834 48.4318 141.177 46.775 141.177H44.479C42.8222 141.177 41.479 139.834 41.479 138.177V100.059C41.479 98.4021 40.1359 97.059 38.479 97.059H3C1.34315 97.059 0 98.4021 0 100.059V141.177V147C0 148.657 1.34315 150 3 150H138.029C139.686 150 141.029 148.657 141.029 147V47.1177C141.029 45.4608 139.686 44.1177 138.029 44.1177H102.55Z" fill="#3E5269"/>
</svg>
