<svg width="100" height="100" viewBox="0 0 100 100" fill="none" xmlns="http://www.w3.org/2000/svg">
<g clip-path="url(#clip0)">
<path d="M93.914 26.8532C89.274 26.3919 87.1287 32.7085 85.8748 37.2059C84.7206 41.346 83.6465 46.8229 82.682 53.4836C82.3648 54.7444 81.9031 55.9388 81.3102 57.0471C81.2339 56.922 81.1534 56.7986 81.0669 56.6777C79.799 54.9084 77.1093 53.0961 71.4927 54.5095C67.1899 55.5923 61.6066 58.4717 54.8981 63.0675L54.7975 63.1395C52.8958 64.5639 51.3239 66.2239 50.0803 68.1018C48.8367 66.2237 47.2649 64.5639 45.363 63.1395L45.2625 63.0675C38.554 58.4717 32.9707 55.5923 28.6679 54.5095C23.052 53.0965 20.3612 54.9086 19.0936 56.6777C18.9878 56.8255 18.8924 56.978 18.8018 57.1322C18.1487 55.9755 17.6468 54.7323 17.3132 53.4253C16.4409 47.4111 14.5638 35.8407 11.6126 30.5584C9.75189 27.2277 7.58312 26.7049 6.08984 26.8531C-0.398886 27.4977 -0.143726 39.5326 0.0883979 46.403C0.304903 52.8148 0.985656 58.5378 1.01435 58.7784L1.02236 58.8389C2.12675 66.6602 9.592 73.7457 16.8116 80.5982C22.9552 86.4292 29.3079 92.4585 29.3079 97.0495V99.9779H70.6958V97.0495C70.6958 92.4587 77.0484 86.4292 83.192 80.5982C90.4114 73.7457 97.8769 66.6602 98.9813 58.8389L98.9893 58.7784C99.018 58.5378 99.6987 52.8148 99.9152 46.403C100.156 39.2813 100.323 27.4901 93.914 26.8532ZM47.269 94.1211H34.7816C33.2288 88.1052 27.1879 82.3714 20.8438 76.3503C14.3641 70.1999 7.66375 63.8408 6.82623 58.0502C6.77157 57.5849 6.12381 51.9638 5.93385 45.9485C5.70973 38.8528 6.2386 35.4008 6.69504 33.7773C9.63143 39.6117 11.1845 52.6036 11.1887 52.6231C11.99 58.2069 14.918 63.1446 19.4329 66.5263L33.2903 76.9055L36.8012 72.2177L25.4848 63.7416C24.035 62.6557 23.5374 60.5325 23.8548 60.0891C23.93 59.9843 24.8202 59.5805 27.2391 60.1893C29.728 60.8155 34.2904 62.6557 41.9001 67.863C44.7606 70.0208 46.4987 72.6911 47.269 76.2444V94.1211ZM94.0704 45.9485C93.8802 51.9638 93.2326 57.5849 93.178 58.0502C92.3405 63.841 85.6403 70.1999 79.1604 76.3503C72.8165 82.3714 66.7756 88.1052 65.2226 94.1211H53.0874V75.6512L53.0811 75.6197C53.9108 72.3764 55.5712 69.8922 58.2608 67.8632C65.8706 62.6561 70.4332 60.8157 72.9221 60.1894C75.3408 59.5805 76.231 59.9847 76.3064 60.0893C76.6238 60.5327 76.126 62.6557 74.6762 63.7416L63.3598 72.2177L66.8707 76.9055L80.728 66.5261C85.1296 63.2293 88.0018 58.2919 88.8153 52.6231C88.8194 52.6036 90.4559 39.4459 93.309 33.7773C93.7656 35.4008 94.2945 38.8528 94.0704 45.9485Z" fill="#3E5269"/>
<path d="M82.4531 20.7031C82.4531 9.39629 73.2521 0 61.9453 0C57.5393 0 53.4223 1.88535 50.2266 5.27852C47.0307 1.88535 42.9137 0 38.5078 0C27.201 0 18 9.39629 18 20.7031C18 32.0758 26.3455 37.9465 36.0102 44.7471C39.9955 47.5508 44.1184 50.452 48.3068 54.0855L50.2236 55.7506L52.1434 54.0883C56.8783 49.9912 61.3816 46.7842 65.3527 43.9545C74.9057 37.1541 82.4531 31.7811 82.4531 20.7031ZM59.0156 29.4922H53.1562V35.3516H47.2969V29.4922H41.4375V23.6328H47.2969V17.7734H53.1562V23.6328H59.0156V29.4922Z" fill="#3E5269"/>
</g>
<defs>
<clipPath id="clip0">
<rect width="100" height="100" rx="8" fill="white"/>
</clipPath>
</defs>
</svg>
