<svg width="100" height="100" viewBox="0 0 100 100" fill="none" xmlns="http://www.w3.org/2000/svg">
<path d="M19.2349 46.7134C11.2042 46.7222 4.69571 53.23 4.6875 61.2608C4.6875 67.547 14.2235 82.1992 19.2349 89.2242C24.2457 82.1992 33.7823 67.5457 33.7823 61.2608C33.7735 53.23 27.265 46.7222 19.2349 46.7134ZM19.2349 70.9591C13.8788 70.9591 9.53664 66.6163 9.53664 61.2608C9.53664 55.9053 13.8788 51.5625 19.2349 51.5625C24.5904 51.5625 28.9332 55.9053 28.9332 61.2608C28.9275 66.6151 24.5892 70.9534 19.2349 70.9591Z" fill="#3E5269"/>
<path d="M25.7006 61.2607C25.7006 64.8312 22.8056 67.7262 19.235 67.7262C15.6645 67.7262 12.7695 64.8312 12.7695 61.2607C12.7695 57.6901 15.6645 54.7952 19.235 54.7952C22.8056 54.7952 25.7006 57.6901 25.7006 61.2607Z" fill="#3E5269"/>
<path d="M95.2052 17.6185C95.2052 9.58392 88.6923 3.07104 80.6578 3.07104C72.6232 3.07104 66.1104 9.58392 66.1104 17.6185C66.1104 23.9047 75.6464 38.5569 80.6578 45.5818C85.6685 38.5556 95.2052 23.9015 95.2052 17.6185ZM70.9595 17.6185C70.9595 12.2629 75.3016 7.92018 80.6578 7.92018C86.0133 7.92018 90.356 12.2629 90.356 17.6185C90.356 22.974 86.0133 27.3167 80.6578 27.3167C75.3035 27.3111 70.9645 22.9727 70.9595 17.6185Z" fill="#3E5269"/>
<path d="M87.1234 17.6186C87.1234 21.1892 84.2285 24.0841 80.6579 24.0841C77.0873 24.0841 74.1924 21.1892 74.1924 17.6186C74.1924 14.048 77.0873 11.1531 80.6579 11.1531C84.2285 11.1531 87.1234 14.048 87.1234 17.6186Z" fill="#3E5269"/>
<path d="M60.1193 52.8557C56.7432 55.6136 54.7878 59.7449 54.7954 64.1034V75.8083C54.7834 85.6233 46.8303 93.5764 37.0152 93.5884H22.4678V96.8212H37.0152C48.6146 96.8079 58.0142 87.4077 58.0281 75.8083V64.1034C58.03 60.7153 59.551 57.5065 62.172 55.3598C64.7935 53.2118 68.2391 52.3524 71.5621 53.0173L80.3335 54.7631L80.9674 51.5948L72.191 49.8395C67.9177 48.9808 63.4866 50.0882 60.1193 52.8557Z" fill="#3E5269"/>
</svg>
