<svg width="100" height="100" viewBox="0 0 100 100" fill="none" xmlns="http://www.w3.org/2000/svg">
<g clip-path="url(#clip0)">
<path d="M62.1017 31.1427C43.1179 31.1427 27.6735 46.5874 27.6735 65.5712C27.6735 72.9114 29.9838 79.7215 33.9136 85.3151C27.7203 84.7612 22.4971 83.1713 18.3721 80.5713C13.7122 77.6345 10.8501 73.0154 10.5198 67.8983C9.94783 59.0476 15.8793 50.8866 19.466 46.8091C22.3005 43.5871 25.4437 40.6039 28.8073 37.943C31.6318 35.7084 34.6076 33.7287 38.2065 31.4436C38.3561 31.3488 38.4131 31.1582 38.3402 30.9967C38.2675 30.8353 38.088 30.7522 37.9168 30.8006C30.2924 32.9997 23.2296 36.6831 17.4919 41.4528C11.1326 46.7391 6.63961 53.2437 4.49887 60.2628C2.83182 65.7296 3.20507 71.6572 5.52317 76.5259C8.81549 83.4403 15.8472 88.3849 24.8157 90.0919C27.5054 90.6038 30.2946 90.8636 33.1058 90.8636C34.8783 90.8636 36.6603 90.76 38.4444 90.5613C44.6178 96.4087 52.9478 100 62.1017 100C81.0856 100 96.5302 84.5558 96.5302 65.5719C96.5302 46.5874 81.0856 31.1427 62.1017 31.1427ZM88.2332 56.6512C86.9026 55.7821 85.359 54.9843 83.6081 54.2734C81.8922 53.5763 80.015 52.9728 78.0136 52.468C77.2876 49.2858 76.2936 46.3411 75.054 43.7561C74.4364 42.4676 73.7694 41.2913 73.0566 40.2292C80.152 43.3079 85.7109 49.2813 88.2332 56.6512ZM79.1564 59.6892C79.8353 59.915 80.4892 60.1555 81.1162 60.4103C85.487 62.1858 87.4435 64.2819 87.4435 65.5712C87.4435 66.8605 85.487 68.9571 81.1162 70.7319C80.4892 70.9862 79.8353 71.2272 79.1564 71.4528C79.3376 69.5314 79.43 67.5638 79.43 65.5712C79.43 63.5777 79.3374 61.6103 79.1564 59.6892ZM55.6361 46.8644C57.5408 42.8883 59.9579 40.5144 62.1013 40.5144C64.2446 40.5144 66.6613 42.8883 68.5667 46.8644C69.1855 48.1561 69.7311 49.5658 70.2005 51.0697C67.5896 50.7739 64.8712 50.6212 62.1013 50.6212C59.3318 50.6212 56.6134 50.7739 54.0025 51.0697C54.4717 49.5658 55.0171 48.1561 55.6361 46.8644ZM35.9698 74.4913C37.2999 75.3603 38.8438 76.1583 40.5946 76.8694C42.3104 77.5661 44.1878 78.1697 46.1894 78.6749C46.9152 81.8575 47.9094 84.802 49.1488 87.3872C49.7661 88.6756 50.4341 89.8521 51.1464 90.9141C44.051 87.8343 38.4926 81.8613 35.9698 74.4913ZM45.0468 71.4535C44.3685 71.2279 43.7143 70.9869 43.0873 70.7326C38.7167 68.9571 36.7603 66.861 36.7603 65.5719C36.7603 64.2822 38.7167 62.1858 43.0873 60.411C43.7143 60.1564 44.3685 59.9157 45.0468 59.6899C44.8664 61.6115 44.7738 63.5784 44.7738 65.5719C44.7733 67.5645 44.8661 69.5321 45.0468 71.4535ZM49.1486 43.7557C47.9091 46.3411 46.915 49.2856 46.1891 52.4675C44.1875 52.973 42.3101 53.5766 40.5944 54.273C38.8438 54.9839 37.2997 55.7817 35.9696 56.6507C38.4921 49.2808 44.0508 43.3079 51.1459 40.2288C50.4333 41.2906 49.7659 42.4669 49.1486 43.7557ZM68.5667 84.2777C66.6617 88.2539 64.2446 90.6271 62.1015 90.6271C59.9584 90.6271 57.5415 88.2539 55.6363 84.2777C55.0171 82.9858 54.4717 81.5759 54.0023 80.0722C56.6131 80.3681 59.3313 80.5212 62.1013 80.5212C64.8707 80.5212 67.5896 80.3681 70.2005 80.0722C69.7318 81.5759 69.1864 82.9858 68.5667 84.2777ZM71.7156 73.1951C68.6966 73.656 65.4513 73.8977 62.1017 73.8977C58.7524 73.8977 55.5071 73.656 52.4881 73.1951C52.146 70.7602 51.9684 68.1987 51.9684 65.5717C51.9684 62.9444 52.146 60.3825 52.4881 57.9478C55.5071 57.4872 58.7524 57.2452 62.1017 57.2452C65.4513 57.2452 68.6966 57.4872 71.7156 57.9478C72.0577 60.3825 72.2354 62.9444 72.2354 65.5717C72.2356 68.1987 72.0577 70.7604 71.7156 73.1951ZM73.0571 90.9137C73.7694 89.8516 74.4371 88.6751 75.0545 87.3868C76.2941 84.8008 77.2876 81.8571 78.0141 78.6744C80.0157 78.1692 81.8929 77.5656 83.6086 76.869C85.3588 76.1578 86.9031 75.3603 88.2337 74.4908C85.7109 81.8613 80.152 87.8343 73.0571 90.9137Z" fill="#3E5269"/>
<path d="M41.3065 27.3776L39.8104 28.3521C39.809 28.353 39.8068 28.3537 39.8059 28.3552C39.2292 28.7336 39.0394 29.4915 39.3704 30.097C39.7026 30.7046 40.4458 30.9539 41.0769 30.6692L58.8672 22.6562L55.9991 28.6325C55.7912 29.0665 55.8975 29.587 56.2606 29.9037C56.6229 30.2209 57.1519 30.257 57.5546 29.9928L60.9744 27.7459C61.072 27.6815 61.1587 27.6015 61.2311 27.5085L70.7861 15.237L83.2853 6.99549C88.0096 3.78723 87.2184 1.77471 86.8632 1.2343C86.5885 0.814747 86.0132 0.274338 84.8393 0.0777398C83.6476 -0.12242 82.0853 0.0630186 80.0628 0.644741C79.3875 0.838965 79.0069 0.867458 78.6035 0.897138C77.1862 1.00303 76.2369 1.19655 71.7306 4.15692L47.0798 20.3528L36.4466 16.1463C36.0456 15.9875 35.5928 16.0343 35.2321 16.271L33.6213 17.329C33.2899 17.5467 33.0733 17.902 33.0318 18.2966C32.99 18.6907 33.1272 19.0834 33.4055 19.366L41.3065 27.3776Z" fill="#3E5269"/>
</g>
<defs>
<clipPath id="clip0">
<rect width="100" height="100" rx="8" fill="white"/>
</clipPath>
</defs>
</svg>
