<svg width="57" height="193" viewBox="0 0 57 193" fill="none" xmlns="http://www.w3.org/2000/svg">
<path fill-rule="evenodd" clip-rule="evenodd" d="M47.0006 4C47.0006 6.20914 45.2097 8 43.0006 8C40.7914 8 39.0006 6.20914 39.0006 4C39.0006 3.90895 39.0036 3.81862 39.0096 3.72909C38.2392 3.95045 37.2899 4.24746 36.2013 4.63574L35.8654 3.69386C37.2273 3.20807 38.3778 2.86155 39.2432 2.62506C39.8038 1.09324 41.2745 0 43.0006 0C45.2097 0 47.0006 1.79086 47.0006 4ZM53.126 151.633C54.4678 148.574 55.2681 145.754 55.6788 143.102L56.667 143.255C56.2423 145.998 55.4163 148.901 54.0418 152.035L53.126 151.633ZM43.3799 166.686C45.4867 164.15 47.2704 161.757 48.7729 159.489L49.6066 160.041C48.0818 162.343 46.276 164.765 44.1491 167.325L43.3799 166.686ZM55.7413 134.208C55.3527 131.207 54.6194 128.331 53.8321 125.42L54.7974 125.159C55.5856 128.073 56.3349 131.006 56.733 134.08L55.7413 134.208ZM36.6634 174.115C36.8883 173.883 37.1107 173.653 37.3307 173.424L38.0518 174.117C37.8737 174.303 37.6942 174.489 37.513 174.675L40.3524 176.549L39.7649 177.438L36.7367 177.488L33.2138 184.105L41.204 185.96L39.7252 187.854L36.9377 187.928C36.8464 188.12 36.7376 188.314 36.6111 188.505C35.888 189.601 34.8755 190.208 34.3497 189.861C33.9438 189.593 33.947 188.835 34.3022 187.999L30.6719 188.096L27.8812 191.397C27.8812 191.397 26.366 193.323 25.2694 192.638L25.2478 192.624C24.1868 191.885 25.3614 189.735 25.3614 189.735L27.2992 185.87L25.9605 182.494C25.3315 183.15 24.6354 183.451 24.2293 183.183C23.7036 182.836 23.8636 181.667 24.5867 180.571C24.7132 180.379 24.8486 180.203 24.9886 180.044L23.9607 177.452L25.1202 175.347L29.968 181.964L34.2029 176.698L34.1493 176.644C34.3091 176.486 34.4678 176.329 34.6255 176.173L34.6662 176.122L33.5219 173.318L34.1079 172.428L36.6634 174.115ZM51.6409 116.585C51.3596 115.112 51.1355 113.603 51.0021 112.043C50.8404 110.149 50.5218 108.39 50.0666 106.749L51.0303 106.482C51.5026 108.185 51.8317 110.005 51.9985 111.957C52.1284 113.477 52.3471 114.952 52.6231 116.398L51.6409 116.585ZM45.177 97.2991C42.9524 94.5406 40.2275 92.191 37.2209 90.0642L37.7984 89.2478C40.8536 91.409 43.6554 93.8193 45.9555 96.6714L45.177 97.2991ZM25.5629 83.0437C23.1589 81.7103 20.7521 80.3754 18.4426 78.975L18.9611 78.1199C21.2524 79.5093 23.6349 80.8307 26.0344 82.1616L26.0388 82.1641C26.8407 82.6089 27.6446 83.0547 28.4476 83.5046L27.9588 84.377C27.163 83.9312 26.3631 83.4875 25.5629 83.0437ZM9.53369 72.5065C6.79663 69.9904 4.50167 67.1118 2.93092 63.6544L3.84137 63.2408C5.34493 66.5503 7.54892 69.3236 10.2105 71.7703L9.53369 72.5065ZM17.5893 14.584C20.4527 11.9864 23.399 9.90479 26.1932 8.24605L26.7037 9.10595C23.9596 10.7349 21.0688 12.7777 18.2612 15.3247L17.5893 14.584ZM0.658638 52.8532C0.640022 51.1115 0.757946 49.2655 1.02553 47.3042C1.27506 45.4752 1.59119 43.7177 1.96713 42.029L2.94324 42.2463C2.57345 43.9074 2.26218 45.6375 2.01635 47.4394C1.75481 49.3564 1.64053 51.1535 1.65858 52.8425L0.658638 52.8532ZM5.23622 31.8731C6.74429 28.3895 8.52936 25.2991 10.4849 22.5603L11.2987 23.1414C9.38298 25.8245 7.63313 28.8535 6.15391 32.2704L5.23622 31.8731Z" fill="black"/>
</svg>
