<svg width="24" height="32" viewBox="0 0 24 32" fill="none" xmlns="http://www.w3.org/2000/svg">
<path d="M21.4738 5.47984C19.5317 2.12834 16.0822 0.0807813 12.2463 0.00253125C12.0825 -0.00084375 11.9177 -0.00084375 11.7539 0.00253125C7.91801 0.0807813 4.46851 2.12834 2.52638 5.47984C0.54126 8.90559 0.486948 13.0206 2.38107 16.4875L10.3163 31.0117C10.3198 31.0182 10.3234 31.0246 10.3271 31.031C10.6762 31.6378 11.3016 32 12.0002 32C12.6987 32 13.3241 31.6377 13.6732 31.031C13.6769 31.0246 13.6804 31.0182 13.684 31.0117L21.6192 16.4875C23.5132 13.0206 23.4589 8.90559 21.4738 5.47984ZM12.0001 14.5C9.51876 14.5 7.50007 12.4813 7.50007 10C7.50007 7.51872 9.51876 5.50003 12.0001 5.50003C14.4814 5.50003 16.5001 7.51872 16.5001 10C16.5001 12.4813 14.4814 14.5 12.0001 14.5Z" fill="#3E5269"/>
</svg>
