<svg width="136" height="28" viewBox="0 0 136 28" fill="none" xmlns="http://www.w3.org/2000/svg">
<path d="M16.264 27H10.108L0.459961 1.51203H7.37196L13.276 19.584H13.42L19.288 1.51203H26.092L16.264 27Z" fill="url(#paint0_linear)"/>
<path d="M38.6793 15.984C38.6793 15.048 38.3793 14.244 37.7793 13.572C37.2033 12.9 36.3273 12.564 35.1513 12.564C34.5753 12.564 34.0473 12.66 33.5673 12.852C33.0873 13.02 32.6673 13.26 32.3073 13.572C31.9473 13.884 31.6593 14.256 31.4433 14.688C31.2273 15.096 31.1073 15.528 31.0833 15.984H38.6793ZM44.1153 18.252C44.1153 18.492 44.1153 18.732 44.1153 18.972C44.1153 19.212 44.1033 19.44 44.0793 19.656H31.0833C31.1313 20.16 31.2753 20.616 31.5153 21.024C31.7793 21.432 32.1033 21.792 32.4873 22.104C32.8953 22.392 33.3393 22.62 33.8193 22.788C34.3233 22.956 34.8393 23.04 35.3673 23.04C36.3033 23.04 37.0953 22.872 37.7433 22.536C38.3913 22.176 38.9193 21.72 39.3273 21.168L43.4313 23.76C42.5913 24.984 41.4753 25.932 40.0833 26.604C38.7153 27.252 37.1193 27.576 35.2953 27.576C33.9513 27.576 32.6793 27.372 31.4793 26.964C30.2793 26.532 29.2233 25.92 28.3113 25.128C27.4233 24.312 26.7153 23.316 26.1873 22.14C25.6833 20.964 25.4313 19.62 25.4313 18.108C25.4313 16.644 25.6833 15.324 26.1873 14.148C26.6913 12.948 27.3753 11.94 28.2393 11.124C29.1033 10.284 30.1233 9.63603 31.2993 9.18003C32.4753 8.72403 33.7473 8.49603 35.1153 8.49603C36.4353 8.49603 37.6473 8.72403 38.7513 9.18003C39.8553 9.61203 40.8033 10.248 41.5953 11.088C42.3873 11.928 42.9993 12.948 43.4313 14.148C43.8873 15.348 44.1153 16.716 44.1153 18.252Z" fill="url(#paint1_linear)"/>
<path d="M59.4046 13.896C59.1406 13.824 58.8766 13.776 58.6126 13.752C58.3726 13.728 58.1326 13.716 57.8926 13.716C57.1006 13.716 56.4286 13.86 55.8766 14.148C55.3486 14.436 54.9166 14.784 54.5806 15.192C54.2686 15.6 54.0406 16.044 53.8966 16.524C53.7526 17.004 53.6806 17.424 53.6806 17.784V27H47.7766V9.07203H53.4646V11.664H53.5366C53.9926 10.752 54.6406 10.008 55.4806 9.43203C56.3206 8.85603 57.2926 8.56803 58.3966 8.56803C58.6366 8.56803 58.8646 8.58003 59.0806 8.60403C59.3206 8.62803 59.5126 8.66403 59.6566 8.71203L59.4046 13.896Z" fill="url(#paint2_linear)"/>
<path d="M68.4581 3.34803C68.4581 3.80403 68.3621 4.23603 68.1701 4.64403C68.0021 5.02803 67.7621 5.36403 67.4501 5.65203C67.1621 5.94003 66.8021 6.16803 66.3701 6.33603C65.9621 6.50403 65.5301 6.58803 65.0741 6.58803C64.1141 6.58803 63.3101 6.27603 62.6621 5.65203C62.0141 5.00403 61.6901 4.23603 61.6901 3.34803C61.6901 2.91603 61.7741 2.50803 61.9421 2.12403C62.1101 1.71603 62.3501 1.36803 62.6621 1.08003C62.9741 0.792032 63.3341 0.564032 63.7421 0.396033C64.1501 0.204032 64.5941 0.108032 65.0741 0.108032C65.5301 0.108032 65.9621 0.192033 66.3701 0.360033C66.8021 0.528033 67.1621 0.756032 67.4501 1.04403C67.7621 1.33203 68.0021 1.68003 68.1701 2.08803C68.3621 2.47203 68.4581 2.89203 68.4581 3.34803ZM62.1221 27V9.07203H68.0261V27H62.1221Z" fill="url(#paint3_linear)"/>
<path d="M85.6624 27H79.5064L69.8584 1.51203H76.7704L82.6744 19.584H82.8184L88.6864 1.51203H95.4904L85.6624 27Z" fill="url(#paint4_linear)"/>
<path d="M106.314 19.188H105.558C104.91 19.188 104.25 19.224 103.578 19.296C102.93 19.344 102.342 19.452 101.814 19.62C101.31 19.788 100.89 20.04 100.554 20.376C100.218 20.688 100.05 21.108 100.05 21.636C100.05 21.972 100.122 22.26 100.266 22.5C100.434 22.74 100.638 22.932 100.878 23.076C101.118 23.22 101.394 23.328 101.706 23.4C102.018 23.448 102.318 23.472 102.606 23.472C103.806 23.472 104.718 23.148 105.342 22.5C105.99 21.828 106.314 20.928 106.314 19.8V19.188ZM95.4777 11.52C96.5337 10.512 97.7577 9.75603 99.1497 9.25203C100.566 8.74803 102.006 8.49603 103.47 8.49603C104.982 8.49603 106.254 8.68803 107.286 9.07203C108.342 9.43203 109.194 10.008 109.842 10.8C110.49 11.568 110.958 12.552 111.246 13.752C111.558 14.928 111.714 16.332 111.714 17.964V27H106.314V25.092H106.206C105.75 25.836 105.054 26.412 104.118 26.82C103.206 27.228 102.21 27.432 101.13 27.432C100.41 27.432 99.6657 27.336 98.8977 27.144C98.1297 26.952 97.4217 26.64 96.7737 26.208C96.1497 25.776 95.6337 25.2 95.2257 24.48C94.8177 23.76 94.6137 22.872 94.6137 21.816C94.6137 20.52 94.9617 19.476 95.6577 18.684C96.3777 17.892 97.2897 17.28 98.3937 16.848C99.5217 16.416 100.77 16.128 102.138 15.984C103.506 15.84 104.838 15.768 106.134 15.768V15.48C106.134 14.592 105.822 13.944 105.198 13.536C104.574 13.104 103.806 12.888 102.894 12.888C102.054 12.888 101.238 13.068 100.446 13.428C99.6777 13.788 99.0177 14.22 98.4657 14.724L95.4777 11.52Z" fill="url(#paint5_linear)"/>
<path d="M128.36 27L124.508 21.492L120.548 27H113.708L120.872 17.604L114.392 9.07203H121.268L124.616 13.86L128 9.07203H134.66L128.216 17.604L135.308 27H128.36Z" fill="url(#paint6_linear)"/>
<defs>
<linearGradient id="paint0_linear" x1="68.5" y1="-1.99994" x2="68.5" y2="34.0001" gradientUnits="userSpaceOnUse">
<stop stop-color="#171C3E"/>
<stop offset="1" stop-color="#355A84"/>
</linearGradient>
<linearGradient id="paint1_linear" x1="68.5" y1="-1.99994" x2="68.5" y2="34.0001" gradientUnits="userSpaceOnUse">
<stop stop-color="#171C3E"/>
<stop offset="1" stop-color="#355A84"/>
</linearGradient>
<linearGradient id="paint2_linear" x1="68.5" y1="-1.99994" x2="68.5" y2="34.0001" gradientUnits="userSpaceOnUse">
<stop stop-color="#171C3E"/>
<stop offset="1" stop-color="#355A84"/>
</linearGradient>
<linearGradient id="paint3_linear" x1="68.5" y1="-1.99994" x2="68.5" y2="34.0001" gradientUnits="userSpaceOnUse">
<stop stop-color="#171C3E"/>
<stop offset="1" stop-color="#355A84"/>
</linearGradient>
<linearGradient id="paint4_linear" x1="68.5" y1="-1.99994" x2="68.5" y2="34.0001" gradientUnits="userSpaceOnUse">
<stop stop-color="#171C3E"/>
<stop offset="1" stop-color="#355A84"/>
</linearGradient>
<linearGradient id="paint5_linear" x1="68.5" y1="-1.99994" x2="68.5" y2="34.0001" gradientUnits="userSpaceOnUse">
<stop stop-color="#171C3E"/>
<stop offset="1" stop-color="#355A84"/>
</linearGradient>
<linearGradient id="paint6_linear" x1="68.5" y1="-1.99994" x2="68.5" y2="34.0001" gradientUnits="userSpaceOnUse">
<stop stop-color="#171C3E"/>
<stop offset="1" stop-color="#355A84"/>
</linearGradient>
</defs>
</svg>
