<svg width="150" height="128" viewBox="0 0 150 128" fill="none" xmlns="http://www.w3.org/2000/svg">
<path d="M130.699 20.4352H127.785V15.8064C127.785 14.6806 126.873 13.7684 125.747 13.7684H114.334C113.208 13.7684 112.296 14.6806 112.296 15.8064V20.4352H102.174V15.2659C102.174 7.36321 95.744 0.933594 87.8413 0.933594H62.1579C54.2552 0.933594 47.8255 7.36321 47.8255 15.2659V20.4352H37.7038V15.8064C37.7038 14.6806 36.7916 13.7684 35.6658 13.7684H24.2527C23.1269 13.7684 22.2147 14.6806 22.2147 15.8064V20.4352H19.3011C8.6413 20.4352 0 29.0765 0 39.7363V107.766C0 118.426 8.6413 127.067 19.3011 127.067H130.699C141.359 127.067 150 118.426 150 107.766V39.7363C150 29.0765 141.359 20.4352 130.699 20.4352ZM55.9777 15.2659C55.9777 11.8583 58.7503 9.08577 62.1579 9.08577H87.8413C91.2489 9.08577 94.0215 11.8583 94.0215 15.2659V20.4352H55.9777V15.2659ZM75 108.516C55.8 108.516 40.2351 92.9512 40.2351 73.7513C40.2351 54.5513 55.8 38.9863 75 38.9863C94.2 38.9863 109.765 54.5513 109.765 73.7513C109.765 92.9512 94.2 108.516 75 108.516ZM101.099 82.289C101.099 82.8295 100.886 83.348 100.504 83.7311C100.122 84.1135 99.6041 84.3287 99.0636 84.3295L85.6003 84.3417V97.8042C85.6003 98.9301 84.688 99.8423 83.5622 99.8423H66.4378C65.312 99.8423 64.3997 98.9301 64.3997 97.8042V84.3613L50.9568 84.3735C50.956 84.3735 50.956 84.3735 50.9552 84.3735C50.4155 84.3735 49.8978 84.1591 49.5155 83.7784C49.1331 83.3961 48.9179 82.8784 48.9171 82.3379L48.9016 65.2143C48.9008 64.0885 49.8122 63.1754 50.938 63.1746L64.4005 63.1624V49.6983C64.4005 48.5724 65.3128 47.6602 66.4386 47.6602H83.5622C84.688 47.6602 85.6003 48.5724 85.6003 49.6983V63.1412L99.0432 63.129C99.044 63.129 99.0448 63.129 99.0448 63.129C100.17 63.129 101.082 64.0404 101.083 65.1654L101.099 82.289Z" fill="#3E5269"/>
</svg>
