<svg width="136" height="28" viewBox="0 0 136 28" fill="none" xmlns="http://www.w3.org/2000/svg">
<path d="M16.264 26.9999H10.108L0.459961 1.51191H7.37196L13.276 19.5839H13.42L19.288 1.51191H26.092L16.264 26.9999Z" fill="url(#paint0_linear)"/>
<path d="M38.6793 15.9839C38.6793 15.0479 38.3793 14.2439 37.7793 13.5719C37.2033 12.8999 36.3273 12.5639 35.1513 12.5639C34.5753 12.5639 34.0473 12.6599 33.5673 12.8519C33.0873 13.0199 32.6673 13.2599 32.3073 13.5719C31.9473 13.8839 31.6593 14.2559 31.4433 14.6879C31.2273 15.0959 31.1073 15.5279 31.0833 15.9839H38.6793ZM44.1153 18.2519C44.1153 18.4919 44.1153 18.7319 44.1153 18.9719C44.1153 19.2119 44.1033 19.4399 44.0793 19.6559H31.0833C31.1313 20.1599 31.2753 20.6159 31.5153 21.0239C31.7793 21.4319 32.1033 21.7919 32.4873 22.1039C32.8953 22.3919 33.3393 22.6199 33.8193 22.7879C34.3233 22.9559 34.8393 23.0399 35.3673 23.0399C36.3033 23.0399 37.0953 22.8719 37.7433 22.5359C38.3913 22.1759 38.9193 21.7199 39.3273 21.1679L43.4313 23.7599C42.5913 24.9839 41.4753 25.9319 40.0833 26.6039C38.7153 27.2519 37.1193 27.5759 35.2953 27.5759C33.9513 27.5759 32.6793 27.3719 31.4793 26.9639C30.2793 26.5319 29.2233 25.9199 28.3113 25.1279C27.4233 24.3119 26.7153 23.3159 26.1873 22.1399C25.6833 20.9639 25.4313 19.6199 25.4313 18.1079C25.4313 16.6439 25.6833 15.3239 26.1873 14.1479C26.6913 12.9479 27.3753 11.9399 28.2393 11.1239C29.1033 10.2839 30.1233 9.63591 31.2993 9.17991C32.4753 8.72391 33.7473 8.49591 35.1153 8.49591C36.4353 8.49591 37.6473 8.72391 38.7513 9.17991C39.8553 9.61191 40.8033 10.2479 41.5953 11.0879C42.3873 11.9279 42.9993 12.9479 43.4313 14.1479C43.8873 15.3479 44.1153 16.7159 44.1153 18.2519Z" fill="url(#paint1_linear)"/>
<path d="M59.4046 13.8959C59.1406 13.8239 58.8766 13.7759 58.6126 13.7519C58.3726 13.7279 58.1326 13.7159 57.8926 13.7159C57.1006 13.7159 56.4286 13.8599 55.8766 14.1479C55.3486 14.4359 54.9166 14.7839 54.5806 15.1919C54.2686 15.5999 54.0406 16.0439 53.8966 16.5239C53.7526 17.0039 53.6806 17.4239 53.6806 17.7839V26.9999H47.7766V9.07191H53.4646V11.6639H53.5366C53.9926 10.7519 54.6406 10.0079 55.4806 9.43191C56.3206 8.85591 57.2926 8.56791 58.3966 8.56791C58.6366 8.56791 58.8646 8.57991 59.0806 8.60391C59.3206 8.62791 59.5126 8.66391 59.6566 8.71191L59.4046 13.8959Z" fill="url(#paint2_linear)"/>
<path d="M68.4581 3.34791C68.4581 3.80391 68.3621 4.23591 68.1701 4.64391C68.0021 5.02791 67.7621 5.36391 67.4501 5.65191C67.1621 5.93991 66.8021 6.16791 66.3701 6.33591C65.9621 6.50391 65.5301 6.58791 65.0741 6.58791C64.1141 6.58791 63.3101 6.27591 62.6621 5.65191C62.0141 5.00391 61.6901 4.23591 61.6901 3.34791C61.6901 2.91591 61.7741 2.50791 61.9421 2.12391C62.1101 1.71591 62.3501 1.36791 62.6621 1.07991C62.9741 0.79191 63.3341 0.56391 63.7421 0.395911C64.1501 0.20391 64.5941 0.10791 65.0741 0.10791C65.5301 0.10791 65.9621 0.191911 66.3701 0.359911C66.8021 0.52791 67.1621 0.75591 67.4501 1.04391C67.7621 1.33191 68.0021 1.67991 68.1701 2.08791C68.3621 2.47191 68.4581 2.89191 68.4581 3.34791ZM62.1221 26.9999V9.07191H68.0261V26.9999H62.1221Z" fill="url(#paint3_linear)"/>
<path d="M85.6624 26.9999H79.5064L69.8584 1.51191H76.7704L82.6744 19.5839H82.8184L88.6864 1.51191H95.4904L85.6624 26.9999Z" fill="url(#paint4_linear)"/>
<path d="M106.314 19.1879H105.558C104.91 19.1879 104.25 19.2239 103.578 19.2959C102.93 19.3439 102.342 19.4519 101.814 19.6199C101.31 19.7879 100.89 20.0399 100.554 20.3759C100.218 20.6879 100.05 21.1079 100.05 21.6359C100.05 21.9719 100.122 22.2599 100.266 22.4999C100.434 22.7399 100.638 22.9319 100.878 23.0759C101.118 23.2199 101.394 23.3279 101.706 23.3999C102.018 23.4479 102.318 23.4719 102.606 23.4719C103.806 23.4719 104.718 23.1479 105.342 22.4999C105.99 21.8279 106.314 20.9279 106.314 19.7999V19.1879ZM95.4777 11.5199C96.5337 10.5119 97.7577 9.75591 99.1497 9.25191C100.566 8.74791 102.006 8.49591 103.47 8.49591C104.982 8.49591 106.254 8.68791 107.286 9.07191C108.342 9.43191 109.194 10.0079 109.842 10.7999C110.49 11.5679 110.958 12.5519 111.246 13.7519C111.558 14.9279 111.714 16.3319 111.714 17.9639V26.9999H106.314V25.0919H106.206C105.75 25.8359 105.054 26.4119 104.118 26.8199C103.206 27.2279 102.21 27.4319 101.13 27.4319C100.41 27.4319 99.6657 27.3359 98.8977 27.1439C98.1297 26.9519 97.4217 26.6399 96.7737 26.2079C96.1497 25.7759 95.6337 25.1999 95.2257 24.4799C94.8177 23.7599 94.6137 22.8719 94.6137 21.8159C94.6137 20.5199 94.9617 19.4759 95.6577 18.6839C96.3777 17.8919 97.2897 17.2799 98.3937 16.8479C99.5217 16.4159 100.77 16.1279 102.138 15.9839C103.506 15.8399 104.838 15.7679 106.134 15.7679V15.4799C106.134 14.5919 105.822 13.9439 105.198 13.5359C104.574 13.1039 103.806 12.8879 102.894 12.8879C102.054 12.8879 101.238 13.0679 100.446 13.4279C99.6777 13.7879 99.0177 14.2199 98.4657 14.7239L95.4777 11.5199Z" fill="url(#paint5_linear)"/>
<path d="M128.36 26.9999L124.508 21.4919L120.548 26.9999H113.708L120.872 17.6039L114.392 9.07191H121.268L124.616 13.8599L128 9.07191H134.66L128.216 17.6039L135.308 26.9999H128.36Z" fill="url(#paint6_linear)"/>
<defs>
<linearGradient id="paint0_linear" x1="68.5" y1="-2" x2="68.5" y2="34" gradientUnits="userSpaceOnUse">
<stop stop-color="white"/>
<stop offset="1" stop-color="#355A84"/>
</linearGradient>
<linearGradient id="paint1_linear" x1="68.5" y1="-2" x2="68.5" y2="34" gradientUnits="userSpaceOnUse">
<stop stop-color="white"/>
<stop offset="1" stop-color="#355A84"/>
</linearGradient>
<linearGradient id="paint2_linear" x1="68.5" y1="-2" x2="68.5" y2="34" gradientUnits="userSpaceOnUse">
<stop stop-color="white"/>
<stop offset="1" stop-color="#355A84"/>
</linearGradient>
<linearGradient id="paint3_linear" x1="68.5" y1="-2" x2="68.5" y2="34" gradientUnits="userSpaceOnUse">
<stop stop-color="white"/>
<stop offset="1" stop-color="#355A84"/>
</linearGradient>
<linearGradient id="paint4_linear" x1="68.5" y1="-2" x2="68.5" y2="34" gradientUnits="userSpaceOnUse">
<stop stop-color="white"/>
<stop offset="1" stop-color="#355A84"/>
</linearGradient>
<linearGradient id="paint5_linear" x1="68.5" y1="-2" x2="68.5" y2="34" gradientUnits="userSpaceOnUse">
<stop stop-color="white"/>
<stop offset="1" stop-color="#355A84"/>
</linearGradient>
<linearGradient id="paint6_linear" x1="68.5" y1="-2" x2="68.5" y2="34" gradientUnits="userSpaceOnUse">
<stop stop-color="white"/>
<stop offset="1" stop-color="#355A84"/>
</linearGradient>
</defs>
</svg>
