<svg width="1302" height="699" viewBox="0 0 1302 699" fill="none" xmlns="http://www.w3.org/2000/svg">
<path fill-rule="evenodd" clip-rule="evenodd" d="M724.412 8C724.412 12.4183 720.83 16 716.412 16C711.993 16 708.412 12.4183 708.412 8C708.412 3.58172 711.993 0 716.412 0C720.83 0 724.412 3.58172 724.412 8ZM900 691C900 695.418 896.418 699 892 699C887.582 699 884 695.418 884 691C884 686.582 887.582 683 892 683C896.418 683 900 686.582 900 691ZM2.22786 340.635C1.13673 343.727 0.81059 346.992 1.29358 350.448L0.303203 350.586C-0.201159 346.977 0.138576 343.55 1.28485 340.302L2.22786 340.635ZM4.18826 359.445C4.95301 361.004 5.86203 362.598 6.91897 364.228C7.81689 365.613 8.76053 366.974 9.74925 368.311L8.94514 368.906C7.94443 367.552 6.98912 366.174 6.07991 364.772C5.00356 363.112 4.07441 361.483 3.29046 359.885L4.18826 359.445ZM14.6227 325.996C11.6721 328.063 9.18827 330.224 7.18666 332.482L6.43828 331.819C8.50144 329.491 11.0473 327.28 14.0489 325.177L14.6227 325.996ZM16.2178 376.056C18.5043 378.496 20.9593 380.847 23.5779 383.114L22.9234 383.87C20.2798 381.582 17.7996 379.206 15.4882 376.74L16.2178 376.056ZM32.2652 316.798C29.0865 318.08 26.1344 319.411 23.4165 320.79L22.964 319.898C25.7108 318.504 28.6893 317.162 31.891 315.87L32.2652 316.798ZM31.3864 389.278C34.1309 391.259 37.0158 393.167 40.0369 395.004L39.5174 395.858C36.4751 394.009 33.5682 392.086 30.8011 390.089L31.3864 389.278ZM51.4203 310.368C48.0891 311.309 44.9075 312.281 41.8803 313.285L41.5653 312.336C44.6082 311.326 47.8043 310.35 51.1485 309.405L51.4203 310.368ZM48.6871 399.878C51.6192 401.411 54.6578 402.888 57.8 404.31L57.3876 405.221C54.2292 403.791 51.1736 402.306 48.2239 400.764L48.6871 399.878ZM71.29 305.487C67.7356 306.25 64.3001 307.038 60.9872 307.851L60.7488 306.88C64.072 306.064 67.517 305.274 71.0801 304.51L71.29 305.487ZM67.4408 408.38C70.4335 409.558 73.5066 410.694 76.6581 411.788L76.33 412.733C73.1664 411.634 70.0805 410.494 67.0745 409.31L67.4408 408.38ZM90.5504 301.786C87.191 302.365 83.9129 302.961 80.7183 303.574L80.5298 302.592C83.7309 301.978 87.0152 301.381 90.3805 300.8L90.5504 301.786ZM86.3451 414.949C89.6356 415.957 93.0014 416.925 96.4404 417.855L96.1795 418.821C92.7302 417.888 89.3537 416.917 86.0521 415.905L86.3451 414.949ZM110.578 298.658C107.279 299.125 104.043 299.604 100.87 300.097L100.717 299.109C103.894 298.616 107.135 298.135 110.438 297.668L110.578 298.658ZM105.967 420.288C109.202 421.068 112.495 421.816 115.845 422.535L115.635 423.513C112.277 422.792 108.976 422.042 105.733 421.26L105.967 420.288ZM130.533 296.072C127.093 296.48 123.709 296.899 120.383 297.33L120.255 296.339C123.585 295.907 126.972 295.488 130.415 295.079L130.533 296.072ZM126.063 424.6C129.32 425.22 132.626 425.814 135.98 426.383L135.813 427.369C132.453 426.799 129.14 426.204 125.876 425.583L126.063 424.6ZM150.466 293.89C147.193 294.221 143.962 294.56 140.776 294.907L140.668 293.913C143.857 293.565 147.09 293.226 150.365 292.895L150.466 293.89ZM145.869 427.966C149.209 428.47 152.592 428.951 156.018 429.41L155.886 430.401C152.454 429.942 149.065 429.46 145.719 428.955L145.869 427.966ZM170.608 292.006C167.169 292.304 163.77 292.61 160.412 292.924L160.319 291.928C163.679 291.614 167.08 291.308 170.522 291.01L170.608 292.006ZM166.422 430.718C169.668 431.101 172.95 431.465 176.265 431.811L176.161 432.806C172.841 432.46 169.556 432.095 166.305 431.711L166.422 430.718ZM190.593 290.393C187.307 290.64 184.054 290.893 180.833 291.152L180.753 290.155C183.975 289.896 187.231 289.643 190.518 289.396L190.593 290.393ZM186.296 432.793C189.673 433.102 193.083 433.393 196.525 433.668L196.446 434.664C193 434.39 189.586 434.098 186.205 433.789L186.296 432.793ZM210.687 288.982C207.276 289.206 203.895 289.435 200.546 289.67L200.476 288.673C203.827 288.438 207.209 288.208 210.621 287.985L210.687 288.982ZM206.947 434.439C210.227 434.664 213.535 434.874 216.869 435.069L216.81 436.068C213.473 435.872 210.162 435.661 206.878 435.436L206.947 434.439ZM230.851 287.744C227.545 287.934 224.265 288.129 221.01 288.328L220.949 287.33C224.205 287.13 227.487 286.936 230.794 286.745L230.851 287.744ZM226.933 435.613C230.314 435.78 233.72 435.934 237.151 436.074L237.11 437.073C233.676 436.933 230.267 436.779 226.884 436.612L226.933 435.613ZM250.814 286.664C247.439 286.835 244.087 287.011 240.76 287.191L240.706 286.192C244.034 286.012 247.387 285.837 250.763 285.665L250.814 286.664ZM247.518 436.454C250.863 436.563 254.231 436.66 257.621 436.745L257.596 437.745C254.204 437.66 250.833 437.563 247.485 437.453L247.518 436.454ZM271.214 285.688C267.791 285.842 264.389 286 261.009 286.161L260.961 285.162C264.342 285.001 267.745 284.843 271.169 284.689L271.214 285.688ZM267.67 436.963C271.04 437.025 274.43 437.076 277.84 437.115L277.828 438.115C274.417 438.075 271.024 438.025 267.652 437.963L267.67 436.963ZM291.034 284.844C287.693 284.978 284.371 285.116 281.067 285.256L281.025 284.257C284.329 284.117 287.652 283.979 290.994 283.845L291.034 284.844ZM288.126 437.204C291.549 437.223 294.991 437.232 298.45 437.231L298.45 438.231C294.989 438.232 291.546 438.223 288.121 438.204L288.126 437.204ZM311.297 284.072C307.885 284.195 304.49 284.321 301.112 284.449L301.074 283.45C304.452 283.321 307.848 283.195 311.261 283.072L311.297 284.072ZM308.467 437.201C311.823 437.182 315.194 437.154 318.58 437.118L318.591 438.118C315.203 438.154 311.83 438.182 308.473 438.201L308.467 437.201ZM331.363 283.384C328.05 283.492 324.752 283.602 321.468 283.714L321.434 282.715C324.718 282.602 328.017 282.492 331.33 282.384L331.363 283.384ZM328.785 436.985C332.202 436.932 335.634 436.872 339.079 436.803L339.099 437.803C335.652 437.871 332.219 437.932 328.801 437.985L328.785 436.985ZM351.414 282.761C348.044 282.861 344.688 282.963 341.346 283.067L341.315 282.067C344.657 281.963 348.014 281.862 351.384 281.762L351.414 282.761ZM349.301 436.577C352.643 436.496 355.997 436.408 359.364 436.314L359.392 437.313C356.024 437.408 352.668 437.496 349.325 437.577L349.301 436.577ZM371.783 282.185C368.363 282.277 364.957 282.372 361.564 282.468L361.536 281.468C364.929 281.372 368.336 281.278 371.755 281.185L371.783 282.185ZM369.5 436.01C372.89 435.902 376.292 435.788 379.705 435.667L379.74 436.666C376.326 436.787 372.923 436.901 369.531 437.009L369.5 436.01ZM391.678 281.667C388.34 281.75 385.013 281.835 381.697 281.922L381.671 280.922C384.987 280.836 388.315 280.751 391.653 280.667L391.678 281.667ZM389.977 435.286C393.365 435.155 396.763 435.018 400.171 434.876L400.213 435.875C396.804 436.017 393.404 436.154 390.015 436.286L389.977 435.286ZM411.835 281.179C408.455 281.258 405.085 281.338 401.725 281.419L401.701 280.42C405.061 280.339 408.431 280.259 411.811 280.18L411.835 281.179ZM410.257 434.439C413.627 434.288 417.007 434.133 420.396 433.972L420.443 434.971C417.054 435.132 413.673 435.287 410.301 435.438L410.257 434.439ZM432.048 280.721C428.691 280.795 425.343 280.87 422.004 280.945L421.981 279.946C425.32 279.87 428.669 279.795 432.026 279.721L432.048 280.721ZM430.586 433.475C433.991 433.304 437.405 433.129 440.825 432.95L440.878 433.948C437.456 434.128 434.042 434.303 430.636 434.473L430.586 433.475ZM452.054 280.29C448.704 280.361 445.361 280.432 442.027 280.504L442.005 279.504C445.34 279.432 448.683 279.361 452.033 279.29L452.054 280.29ZM451.028 432.402C454.388 432.218 457.754 432.03 461.127 431.838L461.183 432.837C457.81 433.029 454.443 433.217 451.083 433.401L451.028 432.402ZM472.246 279.873C468.866 279.941 465.494 280.011 462.128 280.08L462.107 279.08C464.031 279.041 465.957 279.001 467.886 278.961C469.331 278.932 470.778 278.902 472.226 278.873L472.246 279.873ZM471.264 431.252C474.649 431.052 478.04 430.85 481.436 430.643L481.497 431.642C478.1 431.848 474.708 432.051 471.322 432.25L471.264 431.252ZM492.382 279.467C489.048 279.534 485.721 279.6 482.4 279.667L482.38 278.667C485.701 278.601 489.028 278.534 492.362 278.468L492.382 279.467ZM491.643 430.015C495.042 429.803 498.447 429.588 501.857 429.369L501.921 430.367C498.511 430.586 495.105 430.801 491.705 431.013L491.643 430.015ZM512.448 279.069L502.398 279.268L502.379 278.268L512.428 278.069L512.448 279.069ZM511.969 428.715C515.344 428.494 518.723 428.27 522.106 428.044L522.173 429.042C518.789 429.268 515.41 429.492 512.034 429.713L511.969 428.715ZM532.637 278.668L527.605 278.768L522.528 278.869L522.508 277.869C525.873 277.803 529.243 277.736 532.617 277.668L532.637 278.668ZM532.265 427.36C535.655 427.129 539.048 426.896 542.444 426.662L542.513 427.659C539.117 427.894 535.723 428.127 532.333 428.357L532.265 427.36ZM552.746 278.264C549.402 278.332 546.062 278.399 542.726 278.466L542.706 277.467C546.042 277.4 549.382 277.332 552.725 277.264L552.746 278.264ZM552.64 425.952C556.019 425.715 559.4 425.476 562.783 425.236L562.854 426.234C559.471 426.474 556.089 426.713 552.71 426.949L552.64 425.952ZM572.844 277.85C569.489 277.92 566.136 277.99 562.786 278.059L562.765 277.059C566.115 276.99 569.468 276.921 572.823 276.85L572.844 277.85ZM572.927 424.512C576.31 424.27 579.695 424.026 583.08 423.78L583.153 424.778C579.767 425.023 576.382 425.267 572.998 425.51L572.927 424.512ZM585.775 560.349C583.158 560.885 581.233 561.566 580.001 562.383C578.786 563.189 578.307 564.076 578.397 565.068L577.401 565.158C577.268 563.683 578.04 562.484 579.449 561.55C580.841 560.627 582.915 559.914 585.574 559.369L585.775 560.349ZM593.008 277.42C589.643 277.493 586.28 277.566 582.919 277.637L582.898 276.638C585.182 276.589 587.467 276.54 589.753 276.49C590.831 276.467 591.909 276.444 592.987 276.42L593.008 277.42ZM584.744 572.281C586.845 573.798 589.48 575.461 592.679 577.281L592.184 578.15C588.966 576.319 586.298 574.636 584.159 573.092L584.744 572.281ZM593.241 423.042C596.629 422.795 600.018 422.547 603.407 422.298L603.48 423.295C600.091 423.544 596.702 423.792 593.314 424.039L593.241 423.042ZM605.58 558.85C601.839 558.883 598.443 558.993 595.415 559.188L595.351 558.19C598.402 557.993 601.817 557.883 605.571 557.85L605.58 558.85ZM602.24 582.346C604.832 583.641 607.647 584.998 610.692 586.418L610.269 587.324C607.218 585.901 604.394 584.54 601.793 583.24L602.24 582.346ZM613.122 276.971C609.772 277.048 606.423 277.123 603.075 277.198L603.053 276.198C606.4 276.123 609.749 276.048 613.099 275.971L613.122 276.971ZM613.57 421.55L617.982 421.224C619.898 421.083 621.815 420.941 623.731 420.799L623.805 421.797C620.418 422.047 617.031 422.297 613.644 422.547L613.57 421.55ZM625.972 559.247C622.472 559.106 619.136 559 615.974 558.931L615.996 557.931C619.165 558 622.507 558.107 626.012 558.247L625.972 559.247ZM620.518 590.873C623.393 592.143 626.426 593.458 629.62 594.817L629.228 595.737C626.03 594.376 622.994 593.06 620.114 591.788L620.518 590.873ZM633.237 276.497C629.883 276.578 626.529 276.659 623.177 276.737L623.153 275.738C626.505 275.659 629.859 275.579 633.212 275.497L633.237 276.497ZM633.888 420.047L644.041 419.294L644.115 420.291L633.962 421.044L633.888 420.047ZM646.554 560.329C642.971 560.105 639.501 559.903 636.153 559.725L636.206 558.726C639.558 558.904 643.03 559.107 646.616 559.331L646.554 560.329ZM638.561 598.568C641.672 599.855 644.913 601.179 648.288 602.541L647.914 603.468C644.537 602.105 641.293 600.78 638.179 599.492L638.561 598.568ZM653.364 275.994C650.009 276.08 646.654 276.165 643.299 276.249L643.274 275.25C646.629 275.166 649.983 275.081 653.338 274.994L653.364 275.994ZM654.187 418.542C657.571 418.291 660.954 418.041 664.335 417.791L664.408 418.789C661.028 419.038 657.645 419.289 654.26 419.539L654.187 418.542ZM666.776 561.723C663.237 561.46 659.779 561.211 656.407 560.978L656.476 559.981C659.85 560.214 663.309 560.463 666.85 560.726L666.776 561.723ZM658.374 606.567C661.195 607.681 664.097 608.819 667.082 609.98L666.719 610.912C663.733 609.75 660.829 608.612 658.007 607.497L658.374 606.567ZM673.502 275.455C670.146 275.548 666.79 275.639 663.433 275.729L663.406 274.729C666.763 274.64 670.119 274.548 673.474 274.455L673.502 275.455ZM674.522 417.04C676.049 416.927 677.575 416.815 679.1 416.703C680.966 416.566 682.831 416.43 684.695 416.293L684.768 417.29C681.38 417.538 677.989 417.787 674.596 418.037L674.522 417.04ZM676.286 613.535C679.437 614.744 682.673 615.977 685.994 617.235L685.639 618.17C682.318 616.912 679.081 615.678 675.928 614.469L676.286 613.535ZM686.904 563.292C683.53 563.019 680.214 562.755 676.957 562.5L677.035 561.503C680.292 561.758 683.61 562.022 686.985 562.295L686.904 563.292ZM693.62 274.877C690.27 274.977 686.918 275.075 683.565 275.171L683.536 274.172C686.889 274.075 690.24 273.977 693.59 273.878L693.62 274.877ZM694.85 415.552C698.232 415.306 701.61 415.062 704.985 414.818L705.057 415.816C701.682 416.059 698.304 416.304 694.922 416.549L694.85 415.552ZM696.211 621.082C699.245 622.217 702.344 623.372 705.508 624.545L705.16 625.482C701.995 624.309 698.896 623.154 695.861 622.018L696.211 621.082ZM707.479 564.999C704.002 564.705 700.572 564.417 697.193 564.136L697.275 563.14C698.492 563.241 699.715 563.343 700.945 563.446C703.131 563.629 705.338 563.814 707.563 564.003L707.479 564.999ZM713.699 274.256C710.357 274.363 707.012 274.469 703.666 274.572L703.635 273.573C706.981 273.469 710.325 273.364 713.667 273.256L713.699 274.256ZM714.504 627.867C717.56 628.99 720.673 630.131 723.845 631.288L723.502 632.228C720.33 631.07 717.216 629.929 714.159 628.805L714.504 627.867ZM715.098 414.093C718.506 413.85 721.91 413.608 725.309 413.368L725.379 414.366C721.98 414.606 718.577 414.847 715.169 415.09L715.098 414.093ZM727.565 566.714C724.139 566.42 720.751 566.129 717.403 565.843L717.488 564.847C720.837 565.133 724.225 565.423 727.65 565.718L727.565 566.714ZM733.878 273.58C730.519 273.697 727.157 273.812 723.793 273.925L723.76 272.925C727.124 272.813 730.485 272.698 733.843 272.581L733.878 273.58ZM729.852 8.24477L729.843 7.74486L729.844 7.74483L729.848 7.74477L729.861 7.7445L729.917 7.74347L730.137 7.73949C730.331 7.73603 730.622 7.731 731.007 7.72475C731.775 7.71224 732.917 7.69482 734.412 7.67515L734.425 8.67507C732.931 8.69472 731.79 8.71212 731.023 8.72462C730.639 8.73086 730.349 8.73588 730.154 8.73933L729.935 8.7433L729.88 8.74433L729.867 8.74459L729.863 8.74465L729.862 8.74467L729.852 8.24477ZM733.533 634.811C736.821 636.002 740.168 637.211 743.574 638.437L743.235 639.378C739.828 638.152 736.481 636.943 733.193 635.751L733.533 634.811ZM735.506 412.654C738.9 412.418 742.289 412.184 745.672 411.953L745.741 412.95C742.358 413.182 738.969 413.416 735.575 413.652L735.506 412.654ZM747.944 568.467C744.583 568.178 741.251 567.892 737.95 567.608L738.035 566.611L742.667 567.01C744.446 567.163 746.233 567.316 748.029 567.471L747.944 568.467ZM753.988 272.851C750.643 272.977 747.295 273.101 743.943 273.223L743.907 272.223C747.258 272.102 750.606 271.978 753.95 271.852L753.988 272.851ZM744.628 7.57129C747.571 7.54894 750.92 7.52937 754.646 7.51643L754.65 8.51642C750.925 8.52936 747.577 8.54893 744.636 8.57126L744.628 7.57129ZM753.767 642.094C756.693 643.14 759.659 644.198 762.668 645.269L762.332 646.211C759.324 645.14 756.356 644.082 753.43 643.035L753.767 642.094ZM755.806 411.265C759.177 411.038 762.543 410.814 765.903 410.592L765.969 411.59C762.61 411.812 759.244 412.036 755.873 412.263L755.806 411.265ZM768.214 570.195C764.784 569.905 761.379 569.616 758 569.327L758.085 568.331C761.464 568.619 764.869 568.908 768.299 569.198L768.214 570.195ZM774.027 272.062C770.692 272.199 767.353 272.333 764.009 272.464L763.97 271.465C767.313 271.334 770.652 271.2 773.986 271.063L774.027 272.062ZM764.793 7.50009C768.034 7.50073 771.471 7.50687 775.092 7.52012L775.089 8.52011C771.469 8.50687 768.032 8.50073 764.793 8.50009L764.793 7.50009ZM771.818 648.517C774.909 649.612 778.043 650.72 781.219 651.84L780.887 652.783C777.71 651.663 774.576 650.555 771.484 649.46L771.818 648.517ZM776.103 409.927C779.52 409.707 782.93 409.49 786.332 409.276L786.395 410.274C782.993 410.488 779.584 410.705 776.168 410.925L776.103 409.927ZM788.52 571.886C787.407 571.795 786.297 571.704 785.19 571.613C782.959 571.429 780.738 571.244 778.525 571.06L778.609 570.063C781.92 570.339 785.251 570.615 788.601 570.89L788.52 571.886ZM794.242 271.197C790.884 271.347 787.52 271.494 784.15 271.638L784.107 270.639C787.476 270.495 790.84 270.348 794.198 270.198L794.242 271.197ZM784.922 7.57169C788.255 7.59439 791.712 7.62321 795.285 7.65912L795.275 8.65907C791.703 8.62317 788.247 8.59436 784.915 8.57166L784.922 7.57169ZM790.874 655.237C791.962 655.619 793.055 656.002 794.152 656.387C795.356 656.809 796.565 657.232 797.78 657.658C798.778 658.007 799.779 658.357 800.784 658.709L800.454 659.653C797.108 658.483 793.804 657.325 790.543 656.18L790.874 655.237ZM796.516 408.645C799.902 408.438 803.281 408.235 806.651 408.035L806.71 409.033C803.341 409.233 799.963 409.436 796.577 409.643L796.516 408.645ZM808.835 573.521C805.416 573.252 802.013 572.98 798.626 572.708L798.706 571.711C802.092 571.984 805.495 572.255 808.914 572.524L808.835 573.521ZM814.325 270.261C810.99 270.423 807.649 270.582 804.302 270.738L804.255 269.739C807.602 269.583 810.942 269.424 814.276 269.262L814.325 270.261ZM805.103 7.77256C808.464 7.81646 811.913 7.86666 815.444 7.92387L815.428 8.92373C811.898 8.86655 808.45 8.81636 805.09 8.77248L805.103 7.77256ZM810.953 662.257C814.173 663.379 817.431 664.512 820.728 665.656L820.4 666.601C817.103 665.456 813.844 664.323 810.624 663.201L810.953 662.257ZM816.735 407.448C820.141 407.253 823.537 407.063 826.924 406.877L826.979 407.875C823.593 408.061 820.197 408.252 816.792 408.447L816.735 407.448ZM829.143 575.077C825.778 574.826 822.423 574.573 819.082 574.317L819.158 573.32C822.499 573.576 825.853 573.829 829.218 574.08L829.143 575.077ZM834.363 269.245C831.019 269.422 827.668 269.595 824.31 269.766L824.26 268.767C827.617 268.597 830.967 268.423 834.31 268.246L834.363 269.245ZM825.287 8.09803C828.622 8.16204 832.022 8.23233 835.48 8.30942L835.458 9.30917C832 9.2321 828.602 9.16184 825.268 9.09785L825.287 8.09803ZM833.903 670.218C835.588 670.801 837.283 671.386 838.987 671.974L838.661 672.919C835.554 671.847 832.479 670.785 829.436 669.732L829.763 668.787C831.137 669.262 832.516 669.739 833.903 670.218ZM837.187 406.325C840.598 406.146 843.998 405.971 847.388 405.802L847.438 406.801C844.049 406.97 840.65 407.145 837.24 407.324L837.187 406.325ZM849.462 576.54C846.057 576.304 842.66 576.063 839.273 575.819L839.345 574.822C842.731 575.066 846.127 575.306 849.531 575.543L849.462 576.54ZM854.582 268.127C851.228 268.321 847.866 268.511 844.496 268.697L844.441 267.699C847.81 267.512 851.172 267.323 854.525 267.129L854.582 268.127ZM845.501 8.54815C848.805 8.63194 852.157 8.72199 855.553 8.8187L855.525 9.81829C852.13 9.72161 848.779 9.63159 845.476 9.54783L845.501 8.54815ZM848.402 675.218C851.572 676.308 854.774 677.409 858.009 678.518L857.684 679.464C854.45 678.354 851.247 677.254 848.077 676.163L848.402 675.218ZM857.522 405.309C860.889 405.15 864.244 404.996 867.588 404.848L867.632 405.847C864.29 405.995 860.935 406.149 857.569 406.308L857.522 405.309ZM869.8 577.893C866.422 577.678 863.048 577.459 859.681 577.235L859.748 576.237C863.114 576.461 866.486 576.68 869.864 576.895L869.8 577.893ZM874.603 266.921C871.284 267.129 867.956 267.334 864.619 267.535L864.558 266.537C867.895 266.336 871.222 266.131 874.54 265.922L874.603 266.921ZM865.761 9.12569C869.038 9.22951 872.352 9.3396 875.699 9.45629L875.664 10.4557C872.318 10.339 869.005 10.229 865.729 10.1252L865.761 9.12569ZM867.808 681.877C871.107 683.006 874.438 684.144 877.802 685.293L877.479 686.239C874.115 685.091 870.784 683.952 867.484 682.823L867.808 681.877ZM877.796 404.412C881.24 404.27 884.67 404.135 888.087 404.006L888.125 405.005C884.709 405.134 881.28 405.269 877.837 405.411L877.796 404.412ZM890.121 579.114C886.728 578.922 883.337 578.724 879.95 578.52L880.01 577.522C883.396 577.726 886.786 577.924 890.177 578.116L890.121 579.114ZM894.69 265.6C891.315 265.831 887.929 266.059 884.533 266.282L884.467 265.284C887.862 265.061 891.247 264.834 894.622 264.602L894.69 265.6ZM885.842 9.82652C889.17 9.95355 892.529 10.0872 895.914 10.2277L895.873 11.2269C892.488 11.0864 889.131 10.9528 885.803 10.8258L885.842 9.82652ZM898.294 403.639C901.682 403.523 905.055 403.415 908.414 403.313L908.444 404.313C905.087 404.414 901.715 404.523 898.328 404.638L898.294 403.639ZM910.485 580.19C907.092 580.024 903.698 579.851 900.305 579.672L900.358 578.673C903.75 578.853 907.142 579.025 910.534 579.191L910.485 580.19ZM914.866 264.151C911.525 264.401 908.174 264.647 904.811 264.889L904.74 263.891C908.101 263.65 911.452 263.404 914.791 263.154L914.866 264.151ZM905.931 10.6606C909.294 10.8117 912.681 10.9697 916.09 11.135L916.042 12.1338C912.634 11.9686 909.248 11.8106 905.886 11.6596L905.931 10.6606ZM918.443 403.03C921.892 402.94 925.325 402.858 928.74 402.784L928.762 403.784C925.348 403.857 921.917 403.94 918.469 404.03L918.443 403.03ZM930.823 581.093C927.439 580.958 924.051 580.815 920.661 580.664L920.705 579.665C924.094 579.816 927.48 579.959 930.863 580.094L930.823 581.093ZM934.765 262.59C931.473 262.86 928.168 263.125 924.851 263.385L924.773 262.388C928.089 262.128 931.392 261.863 934.683 261.593L934.765 262.59ZM926.106 11.6385C929.437 11.812 932.786 11.9925 936.151 12.1803L936.096 13.1788C932.732 12.9911 929.384 12.8106 926.054 12.6372L926.106 11.6385ZM939.037 402.585C942.451 402.528 945.847 402.479 949.223 402.439L949.235 403.439C945.86 403.479 942.466 403.528 939.054 403.585L939.037 402.585ZM951.196 581.805C947.791 581.704 944.38 581.593 940.963 581.473L940.998 580.474C944.413 580.593 947.823 580.704 951.225 580.805L951.196 581.805ZM954.974 260.857C951.603 261.159 948.218 261.456 944.818 261.747L944.733 260.751C948.131 260.46 951.515 260.163 954.884 259.861L954.974 260.857ZM946.293 12.7659C949.615 12.9641 952.951 13.1696 956.298 13.3826L956.234 14.3806C952.889 14.1677 949.555 13.9623 946.234 13.7641L946.293 12.7659ZM959.295 402.348C962.67 402.327 966.026 402.315 969.361 402.314L969.361 403.314C966.028 403.315 962.675 403.327 959.301 403.348L959.295 402.348ZM971.563 582.296C968.186 582.234 964.8 582.162 961.404 582.08L961.429 581.081C964.822 581.163 968.207 581.235 971.582 581.296L971.563 582.296ZM975.021 258.974C971.71 259.299 968.384 259.619 965.042 259.933L964.949 258.937C968.289 258.623 971.614 258.304 974.923 257.979L975.021 258.974ZM966.349 14.0429C969.71 14.2705 973.08 14.5059 976.457 14.7493L976.385 15.7467C973.009 15.5034 969.641 15.2682 966.282 15.0406L966.349 14.0429ZM979.756 402.342C983.197 402.362 986.616 402.394 990.009 402.438L989.996 403.438C986.605 403.394 983.189 403.362 979.75 403.342L979.756 402.342ZM991.931 582.535C988.521 582.518 985.098 582.489 981.663 582.448L981.675 581.448C985.108 581.489 988.529 581.518 991.936 581.535L991.931 582.535ZM994.879 256.931C991.572 257.287 988.248 257.637 984.907 257.98L984.805 256.986C988.144 256.642 991.466 256.293 994.772 255.937L994.879 256.931ZM986.473 15.4929C989.817 15.7487 993.166 16.0123 996.519 16.2842L996.438 17.281C993.087 17.0092 989.739 16.7456 986.397 16.49L986.473 15.4929ZM1000.12 402.604C1003.46 402.672 1006.78 402.751 1010.07 402.843L1010.05 403.843C1006.76 403.751 1003.44 403.671 1000.1 403.604L1000.12 402.604ZM1012.32 582.484C1008.95 582.519 1005.57 582.54 1002.17 582.548L1002.17 581.548C1005.57 581.54 1008.95 581.519 1012.31 581.484L1012.32 582.484ZM1015.12 254.645C1011.78 255.04 1008.43 255.428 1005.05 255.809L1004.94 254.815C1008.31 254.435 1011.67 254.047 1015 253.652L1015.12 254.645ZM1006.59 17.1248C1009.93 17.4121 1013.27 17.7079 1016.62 18.0122L1016.53 19.0081C1013.19 18.7039 1009.84 18.4083 1006.5 18.1211L1006.59 17.1248ZM1020.47 403.179C1023.93 403.306 1027.36 403.448 1030.77 403.605L1030.72 404.604C1027.32 404.447 1023.89 404.305 1020.43 404.178L1020.47 403.179ZM1032.69 582.099C1029.27 582.195 1025.83 582.275 1022.37 582.339L1022.35 581.34C1025.81 581.275 1029.24 581.195 1032.66 581.1L1032.69 582.099ZM1034.89 252.189C1031.64 252.613 1028.36 253.03 1025.06 253.439L1024.94 252.446C1028.23 252.037 1031.51 251.621 1034.76 251.197L1034.89 252.189ZM1026.65 18.9513C1030 19.2732 1033.34 19.6039 1036.67 19.9437L1036.57 20.9385C1033.24 20.5989 1029.9 20.2684 1026.56 19.9467L1026.65 18.9513ZM1040.88 404.123C1044.21 404.312 1047.52 404.516 1050.79 404.736L1050.72 405.734C1047.46 405.514 1044.15 405.31 1040.82 405.122L1040.88 404.123ZM1053.04 581.323C1049.7 581.486 1046.33 581.632 1042.94 581.761L1042.9 580.762C1046.29 580.633 1049.65 580.487 1052.99 580.324L1053.04 581.323ZM1055.02 249.433C1051.66 249.917 1048.27 250.392 1044.86 250.858L1044.72 249.867C1048.13 249.401 1051.52 248.926 1054.87 248.443L1055.02 249.433ZM1046.72 20.996C1050.07 21.3562 1053.41 21.7257 1056.74 22.105L1056.63 23.0985C1053.3 22.7196 1049.96 22.3502 1046.62 21.9903L1046.72 20.996ZM1061.17 405.498C1064.64 405.775 1068.06 406.071 1071.45 406.388L1071.36 407.384C1067.97 407.067 1064.55 406.771 1061.09 406.495L1061.17 405.498ZM1073.44 580.08C1070 580.333 1066.54 580.565 1063.04 580.777L1062.98 579.779C1066.47 579.567 1069.94 579.335 1073.36 579.082L1073.44 580.08ZM1074.88 246.424C1071.62 246.944 1068.34 247.454 1065.03 247.955L1064.88 246.967C1068.19 246.466 1071.47 245.956 1074.73 245.437L1074.88 246.424ZM1066.72 23.2727C1070.08 23.6774 1073.43 24.0922 1076.77 24.5175L1076.65 25.5095C1073.31 25.0845 1069.96 24.6699 1066.6 24.2655L1066.72 23.2727ZM1081.48 407.399C1084.81 407.76 1088.1 408.142 1091.34 408.546L1091.22 409.538C1087.98 409.135 1084.7 408.754 1081.37 408.393L1081.48 407.399ZM1093.6 578.297C1090.31 578.639 1086.99 578.958 1083.63 579.255L1083.54 578.258C1086.9 577.962 1090.22 577.644 1093.5 577.302L1093.6 578.297ZM1094.7 243.096C1091.36 243.687 1087.99 244.268 1084.58 244.839L1084.42 243.852C1087.82 243.283 1091.19 242.702 1094.52 242.111L1094.7 243.096ZM1086.76 25.825C1090.09 26.2728 1093.4 26.7313 1096.7 27.2009L1096.55 28.1909C1093.26 27.7217 1089.95 27.2635 1086.63 26.8161L1086.76 25.825ZM1101.78 409.944C1105.2 410.436 1108.57 410.956 1111.88 411.502L1111.72 412.489C1108.41 411.944 1105.05 411.425 1101.63 410.934L1101.78 409.944ZM1114.03 575.797C1110.66 576.277 1107.24 576.728 1103.77 577.151L1103.65 576.158C1107.11 575.736 1110.53 575.286 1113.89 574.807L1114.03 575.797ZM1114.61 239.368C1111.36 240.012 1108.07 240.644 1104.75 241.266L1104.57 240.283C1107.88 239.662 1111.17 239.03 1114.41 238.387L1114.61 239.368ZM1106.75 28.6745C1110.08 29.1774 1113.39 29.6921 1116.69 30.2188L1116.53 31.2063C1113.24 30.68 1109.93 30.1658 1106.6 29.6633L1106.75 28.6745ZM1121.65 413.226C1125.11 413.876 1128.5 414.56 1131.82 415.278L1131.61 416.255C1128.3 415.54 1124.92 414.858 1121.47 414.209L1121.65 413.226ZM1133.89 572.515C1130.65 573.132 1127.35 573.716 1124 574.269L1123.84 573.282C1127.18 572.731 1130.47 572.148 1133.7 571.533L1133.89 572.515ZM1134.13 235.273C1130.88 235.995 1127.59 236.705 1124.27 237.402L1124.06 236.423C1127.38 235.727 1130.67 235.018 1133.91 234.297L1134.13 235.273ZM1126.59 31.8505C1129.96 32.421 1133.29 33.0047 1136.61 33.6019L1136.43 34.586C1133.12 33.9894 1129.78 33.4063 1126.42 32.8364L1126.59 31.8505ZM1141.88 417.612C1145.16 418.427 1148.36 419.279 1151.48 420.17L1151.21 421.132C1148.1 420.244 1144.9 419.395 1141.64 418.582L1141.88 417.612ZM1153.96 568.058C1150.76 568.88 1147.49 569.662 1144.14 570.405L1143.92 569.428C1147.26 568.688 1150.52 567.909 1153.71 567.089L1153.96 568.058ZM1153.94 230.584C1150.73 231.394 1147.47 232.19 1144.17 232.972L1143.94 231.998C1147.23 231.218 1150.49 230.423 1153.7 229.614L1153.94 230.584ZM1146.46 35.4342C1149.79 36.0731 1153.1 36.7264 1156.37 37.3945L1156.17 38.3743C1152.9 37.707 1149.6 37.0545 1146.27 36.4164L1146.46 35.4342ZM1161.37 423.207C1164.71 424.311 1167.95 425.465 1171.08 426.673L1170.72 427.606C1167.6 426.405 1164.38 425.255 1161.06 424.156L1161.37 423.207ZM1173.21 225.393C1170.01 226.314 1166.76 227.219 1163.46 228.107L1163.2 227.141C1166.49 226.255 1169.74 225.352 1172.94 224.432L1173.21 225.393ZM1173.6 562.127C1170.39 563.263 1167.07 564.343 1163.64 565.369L1163.36 564.411C1166.77 563.389 1170.07 562.315 1173.27 561.185L1173.6 562.127ZM1166.29 39.4906C1169.56 40.205 1172.8 40.9351 1175.99 41.6814L1175.76 42.6552C1172.57 41.91 1169.34 41.181 1166.08 40.4676L1166.29 39.4906ZM1180.15 430.454C1183.45 431.942 1186.61 433.5 1189.63 435.13L1189.15 436.01C1186.16 434.392 1183.02 432.845 1179.74 431.366L1180.15 430.454ZM1192.32 554.23C1189.32 555.742 1186.18 557.181 1182.91 558.55L1182.52 557.627C1185.78 556.267 1188.89 554.838 1191.86 553.338L1192.32 554.23ZM1192.6 219.38C1189.49 220.421 1186.31 221.442 1183.08 222.444L1182.78 221.489C1186.01 220.489 1189.18 219.47 1192.28 218.432L1192.6 219.38ZM1185.93 44.0866C1189.22 44.9128 1192.46 45.7575 1195.66 46.6211L1195.4 47.5864C1192.21 46.7245 1188.97 45.8813 1185.68 45.0565L1185.93 44.0866ZM1198.3 440.272C1201.24 442.192 1204.01 444.199 1206.6 446.297L1205.97 447.074C1203.41 444.999 1200.67 443.012 1197.75 441.109L1198.3 440.272ZM1209.52 543.466C1206.95 545.485 1204.18 547.409 1201.23 549.241L1200.71 548.391C1203.63 546.577 1206.36 544.674 1208.9 542.679L1209.52 543.466ZM1211.55 212.504C1208.37 213.761 1205.1 214.992 1201.76 216.199L1201.42 215.258C1204.75 214.055 1208.01 212.827 1211.18 211.574L1211.55 212.504ZM1205.33 49.3405C1208.64 50.3086 1211.89 51.2989 1215.07 52.3119L1214.77 53.2648C1211.59 52.2543 1208.35 51.2663 1205.05 50.3003L1205.33 49.3405ZM1214.14 453.199C1216.54 455.683 1218.71 458.277 1220.66 460.985L1219.85 461.569C1217.93 458.901 1215.78 456.344 1213.42 453.893L1214.14 453.199ZM1223.56 528.721C1221.7 531.456 1219.58 534.064 1217.19 536.547L1216.47 535.856C1218.82 533.409 1220.91 530.845 1222.73 528.159L1223.56 528.721ZM1229.8 204.609C1226.92 205.978 1223.96 207.32 1220.92 208.636L1220.52 207.718C1223.55 206.407 1226.5 205.07 1229.37 203.706L1229.8 204.609ZM1224.45 55.4308C1227.77 56.5827 1231 57.7621 1234.14 58.9697L1233.78 59.9033C1230.65 58.6997 1227.43 57.524 1224.12 56.3754L1224.45 55.4308ZM1225.97 469.764C1227.47 472.774 1228.73 475.905 1229.73 479.163L1228.77 479.457C1227.79 476.252 1226.55 473.171 1225.07 470.21L1225.97 469.764ZM1231.5 510.059C1230.8 513.413 1229.79 516.626 1228.49 519.7L1227.57 519.31C1228.85 516.296 1229.83 513.146 1230.52 509.856L1231.5 510.059ZM1231.96 489.179C1232.2 490.911 1232.38 492.673 1232.5 494.467C1232.62 496.303 1232.66 498.103 1232.62 499.869L1231.62 499.849C1231.66 498.112 1231.62 496.34 1231.5 494.533C1231.39 492.763 1231.21 491.025 1230.97 489.319L1231.96 489.179ZM1247.87 194.978C1245.04 196.679 1242.09 198.343 1239.03 199.971L1238.56 199.088C1241.6 197.467 1244.54 195.812 1247.36 194.12L1247.87 194.978ZM1243.31 62.6779C1246.55 64.0609 1249.69 65.4784 1252.7 66.9315L1252.27 67.8324C1249.27 66.3865 1246.15 64.9752 1242.92 63.5978L1243.31 62.6779ZM1264.46 183.549C1261.81 185.671 1259 187.742 1256.03 189.763L1255.47 188.937C1258.42 186.929 1261.21 184.873 1263.84 182.768L1264.46 183.549ZM1261.47 71.4415C1264.6 73.1587 1267.56 74.9223 1270.36 76.7335L1269.82 77.5733C1267.04 75.776 1264.1 74.0245 1260.99 72.3177L1261.47 71.4415ZM1275.38 173.59C1274.29 174.736 1273.16 175.869 1271.99 176.988L1271.3 176.265C1272.46 175.156 1273.58 174.035 1274.66 172.9C1275.93 171.566 1277.15 170.242 1278.32 168.929L1279.06 169.595C1277.89 170.916 1276.66 172.247 1275.38 173.59ZM1278.52 82.507C1281.29 84.6738 1283.85 86.9044 1286.16 89.2007L1285.46 89.9107C1283.17 87.6451 1280.65 85.4405 1277.9 83.2954L1278.52 82.507ZM1291.31 153.588C1289.61 156.276 1287.69 159.011 1285.55 161.794L1284.76 161.184C1286.88 158.423 1288.78 155.713 1290.46 153.054L1291.31 153.588ZM1292.83 96.9023C1294.87 99.703 1296.58 102.594 1297.93 105.577L1297.02 105.99C1295.7 103.074 1294.03 100.242 1292.02 97.4916L1292.83 96.9023ZM1299.81 135.229C1298.93 138.339 1297.72 141.521 1296.18 144.776L1295.28 144.349C1296.8 141.139 1297.98 138.009 1298.84 134.956L1299.81 135.229ZM1300.98 115.254C1301.58 118.533 1301.78 121.91 1301.55 125.386L1300.55 125.319C1300.78 121.924 1300.58 118.63 1300 115.433L1300.98 115.254Z" fill="black"/>
</svg>
