<svg width="138" height="150" viewBox="0 0 138 150" fill="none" xmlns="http://www.w3.org/2000/svg">
<path d="M32.6362 47.7274V6.8182C32.6362 3.05274 29.5834 0 25.818 0H7.63656C3.8711 0 0.818359 3.05274 0.818359 6.8182C0.818359 10.5837 3.8711 13.6364 7.63656 13.6364H19.0002V47.7274V88.6366V115.909C19.0002 119.674 22.053 122.727 25.8184 122.727H29.2639C28.5071 124.861 28.0912 127.155 28.0912 129.545C28.0912 140.824 37.2671 150 48.5458 150C59.8245 150 69.0004 140.824 69.0004 129.545C69.0004 127.155 68.5845 124.861 67.8277 122.727H83.355C82.5982 124.861 82.1823 127.155 82.1823 129.545C82.1823 140.824 91.3582 150 102.637 150C113.916 150 123.091 140.824 123.091 129.545C123.091 127.155 122.676 124.861 121.919 122.728H130.364C134.129 122.728 137.182 119.674 137.182 115.909C137.182 112.144 134.13 109.091 130.364 109.091L109.91 109.091V43.1815C109.91 39.416 106.857 36.3633 103.091 36.3633H84.9095V25.0033C84.9095 21.2378 81.8568 18.1851 78.0913 18.1851C74.3259 18.1851 71.2731 21.2378 71.2731 25.0033V36.3633H53.0912C49.3258 36.3633 46.273 39.416 46.273 43.1815V109.091H32.6366V88.6366V47.7274H32.6362ZM102.63 122.727H102.643C106.4 122.731 109.455 125.788 109.455 129.545C109.455 133.305 106.396 136.364 102.636 136.364C98.8768 136.364 95.8182 133.305 95.8182 129.545C95.8182 125.788 98.8732 122.731 102.63 122.727ZM48.544 122.727H48.5476C52.3067 122.728 55.364 125.786 55.364 129.545C55.364 133.305 52.3053 136.364 48.5458 136.364C44.7862 136.364 41.7276 133.305 41.7276 129.545C41.7271 125.786 44.7849 122.728 48.544 122.727Z" fill="#3E5269"/>
</svg>
